Antonio-Bold-FF.ufo
<glyph name="exclam" format="1">
  <advance width="514"/>
  <unicode hex="0021"/>
  <outline>
    <contour>
      <point x="115" y="1760" type="line"/>
      <point x="399" y="1760" type="line"/>
      <point x="314" y="423" type="line"/>
      <point x="204" y="423" type="line"/>
    </contour>
    <contour>
      <point x="126" y="256" type="line"/>
      <point x="386" y="256" type="line"/>
      <point x="386" y="0" type="line"/>
      <point x="126" y="0" type="line"/>
    </contour>
  </outline>
</glyph>
<glyph name="quotedbl" format="1">
  <advance width="944"/>
  <unicode hex="0022"/>
  <outline>
    <contour>
      <point x="536" y="1760" type="line"/>
      <point x="780" y="1760" type="line"/>
      <point x="714" y="1125" type="line"/>
      <point x="606" y="1125" type="line"/>
    </contour>
    <contour>
      <point x="170" y="1760" type="line"/>
      <point x="415" y="1760" type="line"/>
      <point x="349" y="1125" type="line"/>
      <point x="241" y="1125" type="line"/>
    </contour>
  </outline>
</glyph>
<glyph name="dollar" format="1">
  <advance width="902"/>
  <unicode hex="0024"/>
  <outline>
    <component base="s" yOffset="22"/>
    <contour>
      <point x="405" y="53" type="line"/>
      <point x="549" y="53" type="line"/>
      <point x="549" y="-220" type="line"/>
      <point x="405" y="-220" type="line"/>
    </contour>
    <contour>
      <point x="396" y="1760" type="line"/>
      <point x="540" y="1760" type="line"/>
      <point x="540" y="1504" type="line"/>
      <point x="396" y="1504" type="line"/>
    </contour>
  </outline>
</glyph>
<glyph name="ampersand" format="1">
  <advance width="1052"/>
  <unicode hex="0026"/>
  <outline>
    <contour>
      <point x="531" y="1781" type="curve" smooth="yes"/>
      <point x="743" y="1781"/>
      <point x="847" y="1656"/>
      <point x="847" y="1434" type="curve" smooth="yes"/>
      <point x="847" y="1247"/>
      <point x="736" y="1079"/>
      <point x="613" y="922" type="curve"/>
      <point x="653" y="818"/>
      <point x="698" y="708"/>
      <point x="742" y="601" type="curve"/>
      <point x="794" y="688"/>
      <point x="855" y="782"/>
      <point x="932" y="874" type="curve"/>
      <point x="1041" y="690" type="line"/>
      <point x="958" y="598"/>
      <point x="899" y="481"/>
      <point x="840" y="369" type="curve"/>
      <point x="908" y="209"/>
      <point x="967" y="73"/>
      <point x="998" y="0" type="curve"/>
      <point x="750" y="0" type="line"/>
      <point x="738" y="29"/>
      <point x="718" y="74"/>
      <point x="693" y="130" type="curve"/>
      <point x="619" y="41"/>
      <point x="528" y="-20"/>
      <point x="394" y="-20" type="curve" smooth="yes"/>
      <point x="195" y="-20"/>
      <point x="73" y="121"/>
      <point x="73" y="378" type="curve" smooth="yes"/>
      <point x="73" y="583"/>
      <point x="209" y="763"/>
      <point x="351" y="930" type="curve"/>
      <point x="269" y="1142"/>
      <point x="208" y="1333"/>
      <point x="208" y="1431" type="curve" smooth="yes"/>
      <point x="208" y="1658"/>
      <point x="336" y="1781"/>
    </contour>
    <contour>
      <point x="597" y="346" type="curve"/>
      <point x="548" y="456"/>
      <point x="494" y="581"/>
      <point x="442" y="706" type="curve"/>
      <point x="364" y="602"/>
      <point x="304" y="501"/>
      <point x="300" y="403" type="curve" smooth="yes"/>
      <point x="296" y="276"/>
      <point x="342" y="209"/>
      <point x="439" y="209" type="curve" smooth="yes"/>
      <point x="498" y="209"/>
      <point x="545" y="262"/>
    </contour>
    <contour>
      <point x="530" y="1144" type="curve"/>
      <point x="607" y="1244"/>
      <point x="662" y="1341"/>
      <point x="662" y="1438" type="curve" smooth="yes"/>
      <point x="662" y="1553"/>
      <point x="639" y="1600"/>
      <point x="561" y="1600" type="curve" smooth="yes"/>
      <point x="467" y="1600"/>
      <point x="451" y="1515"/>
      <point x="451" y="1441" type="curve" smooth="yes"/>
      <point x="451" y="1388"/>
      <point x="482" y="1280"/>
    </contour>
  </outline>
</glyph>
<glyph name="quotesingle" format="1">
  <advance width="423"/>
  <unicode hex="0027"/>
  <outline>
    <contour>
      <point x="100" y="1760" type="line"/>
      <point x="338" y="1760" type="line"/>
      <point x="273" y="1125" type="line"/>
      <point x="160" y="1125" type="line"/>
    </contour>
  </outline>
</glyph>
<glyph name="parenleft" format="1">
  <advance width="619"/>
  <unicode hex="0028"/>
  <outline>
    <contour>
      <point x="129" y="1374" type="line" smooth="yes"/>
      <point x="129" y="1737"/>
      <point x="235" y="1823"/>
      <point x="534" y="1823" type="curve"/>
      <point x="534" y="1623" type="line"/>
      <point x="414" y="1623"/>
      <point x="395" y="1577"/>
      <point x="395" y="1378" type="curve" smooth="yes"/>
      <point x="395" y="309" type="line" smooth="yes"/>
      <point x="395" y="110"/>
      <point x="414" y="64"/>
      <point x="534" y="64" type="curve"/>
      <point x="534" y="-136" type="line"/>
      <point x="235" y="-136"/>
      <point x="129" y="-50"/>
      <point x="129" y="313" type="curve" smooth="yes"/>
    </contour>
  </outline>
</glyph>
<glyph name="plus" format="1">
  <advance width="808"/>
  <unicode hex="002B"/>
  <outline>
    <contour>
      <point x="312" y="1062" type="line"/>
      <point x="494" y="1062" type="line"/>
      <point x="494" y="831" type="line"/>
      <point x="713" y="831" type="line"/>
      <point x="713" y="654" type="line"/>
      <point x="494" y="654" type="line"/>
      <point x="494" y="421" type="line"/>
      <point x="312" y="421" type="line"/>
      <point x="312" y="654" type="line"/>
      <point x="94" y="654" type="line"/>
      <point x="94" y="831" type="line"/>
      <point x="312" y="831" type="line"/>
    </contour>
  </outline>
</glyph>
<glyph name="comma" format="1">
  <advance width="488"/>
  <unicode hex="002C"/>
  <outline>
    <contour>
      <point x="117" y="268" type="line"/>
      <point x="405" y="268" type="line"/>
      <point x="405" y="9" type="line"/>
      <point x="303" y="-338" type="line"/>
      <point x="172" y="-338" type="line"/>
      <point x="242" y="0" type="line"/>
      <point x="117" y="0" type="line"/>
    </contour>
  </outline>
</glyph>
<glyph name="hyphen" format="1">
  <advance width="696"/>
  <unicode hex="002D"/>
  <outline>
    <contour>
      <point x="89" y="836" type="line"/>
      <point x="567" y="836" type="line"/>
      <point x="567" y="661" type="line"/>
      <point x="89" y="661" type="line"/>
    </contour>
  </outline>
</glyph>
<glyph name="period" format="1">
  <advance width="532"/>
  <unicode hex="002E"/>
  <outline>
    <contour>
      <point x="149" y="246" type="line"/>
      <point x="374" y="246" type="line"/>
      <point x="374" y="0" type="line"/>
      <point x="149" y="0" type="line"/>
    </contour>
  </outline>
</glyph>
<glyph name="slash" format="1">
  <advance width="826"/>
  <unicode hex="002F"/>
  <outline>
    <contour>
      <point x="513" y="1769" type="line"/>
      <point x="748" y="1769" type="line"/>
      <point x="320" y="0" type="line"/>
      <point x="86" y="0" type="line"/>
    </contour>
  </outline>
</glyph>
<glyph name="zero" format="1">
  <advance width="1010"/>
  <unicode hex="0030"/>
  <outline>
    <contour>
      <point x="103" y="1316" type="line" smooth="yes"/>
      <point x="103" y="1619"/>
      <point x="219" y="1781"/>
      <point x="501" y="1781" type="curve" smooth="yes"/>
      <point x="783" y="1781"/>
      <point x="899" y="1619"/>
      <point x="899" y="1316" type="curve" smooth="yes"/>
      <point x="899" y="475" type="line" smooth="yes"/>
      <point x="899" y="162"/>
      <point x="789" y="-21"/>
      <point x="501" y="-21" type="curve" smooth="yes"/>
      <point x="213" y="-21"/>
      <point x="103" y="162"/>
      <point x="103" y="475" type="curve" smooth="yes"/>
    </contour>
    <contour>
      <point x="631" y="1327" type="line" smooth="yes"/>
      <point x="631" y="1522"/>
      <point x="570" y="1550"/>
      <point x="500" y="1550" type="curve" smooth="yes"/>
      <point x="432" y="1550"/>
      <point x="370" y="1527"/>
      <point x="370" y="1328" type="curve" smooth="yes"/>
      <point x="370" y="470" type="line" smooth="yes"/>
      <point x="370" y="243"/>
      <point x="418" y="210"/>
      <point x="500" y="210" type="curve" smooth="yes"/>
      <point x="577" y="210"/>
      <point x="631" y="247"/>
      <point x="631" y="470" type="curve" smooth="yes"/>
    </contour>
  </outline>
</glyph>
<glyph name="one" format="1">
  <advance width="676"/>
  <unicode hex="0031"/>
  <outline>
    <contour>
      <point x="318" y="1760" type="curve"/>
      <point x="526" y="1760" type="line"/>
      <point x="526" y="0" type="line"/>
      <point x="258" y="0" type="line"/>
      <point x="258" y="1428" type="line"/>
      <point x="210" y="1371"/>
      <point x="114" y="1342"/>
      <point x="40" y="1342" type="curve"/>
      <point x="40" y="1541" type="line"/>
      <point x="146" y="1556"/>
      <point x="262" y="1628"/>
    </contour>
  </outline>
</glyph>
<glyph name="four" format="1">
  <advance width="951"/>
  <unicode hex="0034"/>
  <outline>
    <contour>
      <point x="477" y="1760" type="line"/>
      <point x="763" y="1760" type="line"/>
      <point x="763" y="526" type="line"/>
      <point x="899" y="526" type="line"/>
      <point x="899" y="310" type="line"/>
      <point x="763" y="310" type="line"/>
      <point x="763" y="0" type="line"/>
      <point x="524" y="0" type="line"/>
      <point x="524" y="310" type="line"/>
      <point x="90" y="310" type="line"/>
      <point x="90" y="507" type="line"/>
    </contour>
    <contour>
      <point x="524" y="526" type="line"/>
      <point x="524" y="1395" type="line"/>
      <point x="297" y="526" type="line"/>
    </contour>
  </outline>
</glyph>
<glyph name="five" format="1">
  <advance width="951"/>
  <unicode hex="0035"/>
  <outline>
    <contour>
      <point x="133" y="1760" type="line"/>
      <point x="784" y="1760" type="line"/>
      <point x="784" y="1520" type="line"/>
      <point x="380" y="1520" type="line"/>
      <point x="380" y="1163" type="line"/>
      <point x="405" y="1213"/>
      <point x="480" y="1246"/>
      <point x="557" y="1246" type="curve" smooth="yes"/>
      <point x="769" y="1246"/>
      <point x="831" y="1064"/>
      <point x="831" y="668" type="curve" smooth="yes"/>
      <point x="831" y="199"/>
      <point x="807" y="-20"/>
      <point x="471" y="-20" type="curve" smooth="yes"/>
      <point x="222" y="-20"/>
      <point x="122" y="122"/>
      <point x="122" y="343" type="curve" smooth="yes"/>
      <point x="122" y="564" type="line"/>
      <point x="373" y="564" type="line"/>
      <point x="373" y="371" type="line" smooth="yes"/>
      <point x="373" y="279"/>
      <point x="386" y="209"/>
      <point x="471" y="209" type="curve" smooth="yes"/>
      <point x="547" y="209"/>
      <point x="571" y="266"/>
      <point x="571" y="382" type="curve" smooth="yes"/>
      <point x="571" y="832" type="line" smooth="yes"/>
      <point x="571" y="947"/>
      <point x="556" y="1023"/>
      <point x="473" y="1023" type="curve" smooth="yes"/>
      <point x="406" y="1023"/>
      <point x="369" y="968"/>
      <point x="369" y="852" type="curve"/>
      <point x="133" y="862" type="line"/>
    </contour>
  </outline>
</glyph>
<glyph name="six" format="1">
  <advance width="951"/>
  <unicode hex="0036"/>
  <outline>
    <contour>
      <point x="370" y="459" type="line" smooth="yes"/>
      <point x="370" y="289"/>
      <point x="400" y="212"/>
      <point x="499" y="212" type="curve" smooth="yes"/>
      <point x="595" y="212"/>
      <point x="622" y="264"/>
      <point x="622" y="434" type="curve" smooth="yes"/>
      <point x="622" y="601" type="line" smooth="yes"/>
      <point x="622" y="796"/>
      <point x="594" y="871"/>
      <point x="504" y="871" type="curve" smooth="yes"/>
      <point x="428" y="871"/>
      <point x="378" y="826"/>
      <point x="370" y="777" type="curve"/>
    </contour>
    <contour>
      <point x="881" y="483" type="line" smooth="yes"/>
      <point x="881" y="152"/>
      <point x="802" y="-21"/>
      <point x="499" y="-21" type="curve" smooth="yes"/>
      <point x="173" y="-21"/>
      <point x="102" y="185"/>
      <point x="102" y="527" type="curve" smooth="yes"/>
      <point x="102" y="1250" type="line" smooth="yes"/>
      <point x="102" y="1652"/>
      <point x="232" y="1781"/>
      <point x="502" y="1781" type="curve" smooth="yes"/>
      <point x="736" y="1781"/>
      <point x="843" y="1664"/>
      <point x="845" y="1336" type="curve"/>
      <point x="845" y="1245" type="line"/>
      <point x="595" y="1245" type="line"/>
      <point x="595" y="1281" type="line" smooth="yes"/>
      <point x="595" y="1478"/>
      <point x="587" y="1548"/>
      <point x="489" y="1548" type="curve" smooth="yes"/>
      <point x="387" y="1548"/>
      <point x="370" y="1477"/>
      <point x="370" y="1270" type="curve" smooth="yes"/>
      <point x="370" y="1019" type="line"/>
      <point x="409" y="1072"/>
      <point x="484" y="1102"/>
      <point x="569" y="1103" type="curve" smooth="yes"/>
      <point x="809" y="1107"/>
      <point x="881" y="928"/>
      <point x="881" y="580" type="curve" smooth="yes"/>
    </contour>
  </outline>
</glyph>
<glyph name="seven" format="1">
  <advance width="951"/>
  <unicode hex="0037"/>
  <outline>
    <contour>
      <point x="104" y="1761" type="line"/>
      <point x="881" y="1761" type="line"/>
      <point x="881" y="1566" type="line"/>
      <point x="869" y="1459"/>
      <point x="779" y="1284"/>
      <point x="704" y="1046" type="curve"/>
      <point x="612" y="762"/>
      <point x="525" y="406"/>
      <point x="500" y="1" type="curve"/>
      <point x="208" y="1" type="line"/>
      <point x="243" y="485"/>
      <point x="377" y="875"/>
      <point x="493" y="1203" type="curve"/>
      <point x="550" y="1382"/>
      <point x="597" y="1500"/>
      <point x="604" y="1526" type="curve"/>
      <point x="104" y="1526" type="line"/>
    </contour>
  </outline>
</glyph>
<glyph name="colon" format="1">
  <advance width="555"/>
  <unicode hex="003A"/>
  <outline>
    <contour>
      <point x="136" y="1307" type="line"/>
      <point x="419" y="1307" type="line"/>
      <point x="419" y="1038" type="line"/>
      <point x="136" y="1038" type="line"/>
    </contour>
    <contour>
      <point x="136" y="539" type="line"/>
      <point x="419" y="539" type="line"/>
      <point x="419" y="270" type="line"/>
      <point x="136" y="270" type="line"/>
    </contour>
  </outline>
</glyph>
<glyph name="semicolon" format="1">
  <advance width="561"/>
  <unicode hex="003B"/>
  <outline>
    <contour>
      <point x="132" y="533" type="line"/>
      <point x="435" y="533" type="line"/>
      <point x="435" y="264" type="line"/>
      <point x="326" y="-107" type="line"/>
      <point x="184" y="-107" type="line"/>
      <point x="262" y="255" type="line"/>
      <point x="132" y="255" type="line"/>
    </contour>
    <contour>
      <point x="126" y="1250" type="line"/>
      <point x="427" y="1250" type="line"/>
      <point x="427" y="944" type="line"/>
      <point x="126" y="944" type="line"/>
    </contour>
  </outline>
</glyph>
<glyph name="less" format="1">
  <advance width="730"/>
  <unicode hex="003C"/>
  <outline>
    <contour>
      <point x="65" y="899" type="line"/>
      <point x="638" y="1264" type="line"/>
      <point x="638" y="989" type="line"/>
      <point x="242" y="753" type="line"/>
      <point x="638" y="510" type="line"/>
      <point x="638" y="238" type="line"/>
      <point x="65" y="607" type="line"/>
    </contour>
  </outline>
</glyph>
<glyph name="equal" format="1">
  <advance width="722"/>
  <unicode hex="003D"/>
  <outline>
    <contour>
      <point x="104" y="738" type="line"/>
      <point x="618" y="738" type="line"/>
      <point x="618" y="549" type="line"/>
      <point x="104" y="549" type="line"/>
    </contour>
    <contour>
      <point x="104" y="1076" type="line"/>
      <point x="618" y="1076" type="line"/>
      <point x="618" y="892" type="line"/>
      <point x="104" y="892" type="line"/>
    </contour>
  </outline>
</glyph>
<glyph name="greater" format="1">
  <advance width="730"/>
  <unicode hex="003E"/>
  <outline>
    <contour>
      <point x="90" y="992" type="line"/>
      <point x="90" y="1264" type="line"/>
      <point x="664" y="898" type="line"/>
      <point x="664" y="605" type="line"/>
      <point x="90" y="238" type="line"/>
      <point x="90" y="513" type="line"/>
      <point x="486" y="749" type="line"/>
    </contour>
  </outline>
</glyph>
<glyph name="at" format="1">
  <advance width="1502"/>
  <unicode hex="0040"/>
  <outline>
    <contour>
      <point x="758" y="531" type="curve" smooth="yes"/>
      <point x="833" y="531"/>
      <point x="870" y="648"/>
      <point x="870" y="779" type="curve" smooth="yes"/>
      <point x="870" y="1180" type="line"/>
      <point x="692" y="1252"/>
      <point x="643" y="1085"/>
      <point x="643" y="824" type="curve" smooth="yes"/>
      <point x="643" y="637"/>
      <point x="675" y="531"/>
    </contour>
    <contour>
      <point x="110" y="836" type="curve" smooth="yes"/>
      <point x="110" y="1416"/>
      <point x="321" y="1775"/>
      <point x="809" y="1775" type="curve" smooth="yes"/>
      <point x="1197" y="1775"/>
      <point x="1392" y="1459"/>
      <point x="1392" y="910" type="curve" smooth="yes"/>
      <point x="1392" y="591"/>
      <point x="1295" y="378"/>
      <point x="1096" y="378" type="curve" smooth="yes"/>
      <point x="1015" y="378"/>
      <point x="929" y="455"/>
      <point x="897" y="597" type="curve"/>
      <point x="872" y="449"/>
      <point x="831" y="361"/>
      <point x="732" y="361" type="curve" smooth="yes"/>
      <point x="586" y="361"/>
      <point x="470" y="508"/>
      <point x="470" y="818" type="curve" smooth="yes"/>
      <point x="470" y="1116"/>
      <point x="562" y="1501"/>
      <point x="1038" y="1283" type="curve"/>
      <point x="1038" y="759" type="line" smooth="yes"/>
      <point x="1038" y="633"/>
      <point x="1055" y="544"/>
      <point x="1111" y="544" type="curve" smooth="yes"/>
      <point x="1182" y="544"/>
      <point x="1223" y="634"/>
      <point x="1223" y="942" type="curve" smooth="yes"/>
      <point x="1223" y="1286"/>
      <point x="1141" y="1609"/>
      <point x="796" y="1609" type="curve" smooth="yes"/>
      <point x="444" y="1609"/>
      <point x="306" y="1315"/>
      <point x="306" y="833" type="curve" smooth="yes"/>
      <point x="306" y="230"/>
      <point x="604" y="-7"/>
      <point x="1138" y="178" type="curve"/>
      <point x="1165" y="10" type="line"/>
      <point x="556" y="-207"/>
      <point x="110" y="110"/>
    </contour>
  </outline>
</glyph>
<glyph name="A" format="1">
  <advance width="927"/>
  <unicode hex="0041"/>
  <outline>
    <contour>
      <point x="278.5" y="1760" type="line"/>
      <point x="632.5" y="1760" type="line"/>
      <point x="899.5" y="0" type="line"/>
      <point x="649.5" y="0" type="line"/>
      <point x="607.5" y="314" type="line"/>
      <point x="323.5" y="314" type="line"/>
      <point x="285.5" y="0" type="line"/>
      <point x="27.5" y="0" type="line"/>
    </contour>
    <contour>
      <point x="349.5" y="529" type="line"/>
      <point x="579.5" y="529" type="line"/>
      <point x="461.5" y="1413" type="line"/>
      <point x="457.5" y="1413" type="line"/>
    </contour>
  </outline>
</glyph>
<glyph name="B" format="1">
  <advance width="984"/>
  <unicode hex="0042"/>
  <outline>
    <contour>
      <point x="132" y="1760" type="line"/>
      <point x="513" y="1760" type="line" smooth="yes"/>
      <point x="778" y="1760"/>
      <point x="874" y="1646"/>
      <point x="875" y="1362" type="curve"/>
      <point x="875" y="1308" type="line" smooth="yes"/>
      <point x="875" y="1125"/>
      <point x="832" y="1005"/>
      <point x="721" y="959" type="curve"/>
      <point x="859" y="913"/>
      <point x="909" y="748"/>
      <point x="909" y="544" type="curve" smooth="yes"/>
      <point x="909" y="499" type="line"/>
      <point x="907" y="146"/>
      <point x="795" y="0"/>
      <point x="521" y="0" type="curve" smooth="yes"/>
      <point x="132" y="0" type="line"/>
    </contour>
    <contour>
      <point x="639" y="602" type="line" smooth="yes"/>
      <point x="639" y="773"/>
      <point x="615" y="847"/>
      <point x="513" y="847" type="curve" smooth="yes"/>
      <point x="400" y="847" type="line"/>
      <point x="400" y="208" type="line"/>
      <point x="495" y="208" type="line" smooth="yes"/>
      <point x="601" y="208"/>
      <point x="639" y="270"/>
      <point x="639" y="460" type="curve" smooth="yes"/>
    </contour>
    <contour>
      <point x="611" y="1379" type="line"/>
      <point x="610" y="1521"/>
      <point x="574" y="1550"/>
      <point x="490" y="1550" type="curve" smooth="yes"/>
      <point x="400" y="1550" type="line"/>
      <point x="400" y="1048" type="line"/>
      <point x="499" y="1048" type="line" smooth="yes"/>
      <point x="592" y="1048"/>
      <point x="611" y="1092"/>
      <point x="611" y="1273" type="curve" smooth="yes"/>
    </contour>
  </outline>
</glyph>
<glyph name="D" format="1">
  <advance width="1008"/>
  <unicode hex="0044"/>
  <outline>
    <contour>
      <point x="132" y="1760" type="line"/>
      <point x="527" y="1760" type="line" smooth="yes"/>
      <point x="794" y="1760"/>
      <point x="896" y="1594"/>
      <point x="896" y="1308" type="curve" smooth="yes"/>
      <point x="897" y="514" type="line" smooth="yes"/>
      <point x="897" y="167"/>
      <point x="794" y="0"/>
      <point x="518" y="0" type="curve" smooth="yes"/>
      <point x="132" y="0" type="line"/>
    </contour>
    <contour>
      <point x="628" y="1301" type="line" smooth="yes"/>
      <point x="628" y="1481"/>
      <point x="590" y="1554"/>
      <point x="479" y="1554" type="curve" smooth="yes"/>
      <point x="400" y="1554" type="line"/>
      <point x="400" y="208" type="line"/>
      <point x="488" y="208" type="line" smooth="yes"/>
      <point x="582" y="208"/>
      <point x="629" y="254"/>
      <point x="629" y="432" type="curve" smooth="yes"/>
    </contour>
  </outline>
</glyph>
<glyph name="E" format="1">
  <advance width="800"/>
  <unicode hex="0045"/>
  <outline>
    <contour>
      <point x="132" y="1760" type="line"/>
      <point x="722" y="1760" type="line"/>
      <point x="722" y="1529" type="line"/>
      <point x="400" y="1529" type="line"/>
      <point x="400" y="1017" type="line"/>
      <point x="706" y="1017" type="line"/>
      <point x="706" y="791" type="line"/>
      <point x="400" y="791" type="line"/>
      <point x="400" y="231" type="line"/>
      <point x="734" y="231" type="line"/>
      <point x="734" y="0" type="line"/>
      <point x="132" y="0" type="line"/>
    </contour>
  </outline>
</glyph>
<glyph name="F" format="1">
  <advance width="791"/>
  <unicode hex="0046"/>
  <outline>
    <contour>
      <point x="132" y="1760" type="line"/>
      <point x="736" y="1760" type="line"/>
      <point x="736" y="1527" type="line"/>
      <point x="400" y="1527" type="line"/>
      <point x="400" y="1059" type="line"/>
      <point x="712" y="1059" type="line"/>
      <point x="712" y="825" type="line"/>
      <point x="400" y="825" type="line"/>
      <point x="400" y="0" type="line"/>
      <point x="132" y="0" type="line"/>
    </contour>
  </outline>
</glyph>
<glyph name="G" format="1">
  <advance width="1000"/>
  <unicode hex="0047"/>
  <outline>
    <contour>
      <point x="110" y="1280" type="line" smooth="yes"/>
      <point x="110" y="1595"/>
      <point x="224" y="1780"/>
      <point x="509" y="1780" type="curve" smooth="yes"/>
      <point x="818" y="1780"/>
      <point x="880" y="1591"/>
      <point x="880" y="1270" type="curve" smooth="yes"/>
      <point x="880" y="1145" type="line"/>
      <point x="630" y="1145" type="line"/>
      <point x="630" y="1329" type="line" smooth="yes"/>
      <point x="630" y="1487"/>
      <point x="603" y="1548"/>
      <point x="513" y="1548" type="curve" smooth="yes"/>
      <point x="413" y="1548"/>
      <point x="380" y="1481"/>
      <point x="380" y="1282" type="curve" smooth="yes"/>
      <point x="380" y="519" type="line" smooth="yes"/>
      <point x="380" y="298"/>
      <point x="403" y="210"/>
      <point x="507" y="210" type="curve" smooth="yes"/>
      <point x="608" y="210"/>
      <point x="646" y="299"/>
      <point x="646" y="529" type="curve" smooth="yes"/>
      <point x="646" y="766" type="line"/>
      <point x="511" y="766" type="line"/>
      <point x="511" y="961" type="line"/>
      <point x="880" y="961" type="line"/>
      <point x="880" y="0" type="line"/>
      <point x="760" y="0" type="line"/>
      <point x="719" y="173" type="line"/>
      <point x="690" y="52"/>
      <point x="584" y="-18"/>
      <point x="463" y="-18" type="curve" smooth="yes"/>
      <point x="251" y="-18"/>
      <point x="110" y="139"/>
      <point x="110" y="515" type="curve" smooth="yes"/>
    </contour>
  </outline>
</glyph>
<glyph name="H" format="1">
  <advance width="1040"/>
  <unicode hex="0048"/>
  <outline>
    <contour>
      <point x="640" y="1760" type="line"/>
      <point x="908" y="1760" type="line"/>
      <point x="908" y="0" type="line"/>
      <point x="640" y="0" type="line"/>
      <point x="640" y="818" type="line"/>
      <point x="400" y="818" type="line"/>
      <point x="400" y="0" type="line"/>
      <point x="132" y="0" type="line"/>
      <point x="132" y="1760" type="line"/>
      <point x="400" y="1760" type="line"/>
      <point x="400" y="1048" type="line"/>
      <point x="640" y="1048" type="line"/>
    </contour>
  </outline>
</glyph>
<glyph name="I" format="1">
  <advance width="543"/>
  <unicode hex="0049"/>
  <outline>
    <contour>
      <point x="137.5" y="1760" type="line"/>
      <point x="405.5" y="1760" type="line"/>
      <point x="405.5" y="0" type="line"/>
      <point x="137.5" y="0" type="line"/>
    </contour>
  </outline>
</glyph>
<glyph name="J" format="1">
  <advance width="946"/>
  <unicode hex="004A"/>
  <outline>
    <contour>
      <point x="540.5" y="1760" type="line"/>
      <point x="808.5" y="1760" type="line"/>
      <point x="808.5" y="431" type="line" smooth="yes"/>
      <point x="808.5" y="142"/>
      <point x="674.5" y="-20"/>
      <point x="448.5" y="-20" type="curve" smooth="yes"/>
      <point x="218.5" y="-20"/>
      <point x="82.5" y="119"/>
      <point x="82.5" y="389" type="curve" smooth="yes"/>
      <point x="82.5" y="703" type="line"/>
      <point x="341.5" y="703" type="line"/>
      <point x="341.5" y="402" type="line" smooth="yes"/>
      <point x="341.5" y="297"/>
      <point x="353.5" y="210"/>
      <point x="440.5" y="210" type="curve" smooth="yes"/>
      <point x="528.5" y="210"/>
      <point x="540.5" y="290"/>
      <point x="540.5" y="418" type="curve" smooth="yes"/>
    </contour>
  </outline>
</glyph>
<glyph name="K" format="1">
  <advance width="981"/>
  <unicode hex="004B"/>
  <outline>
    <contour>
      <point x="668" y="1760" type="line"/>
      <point x="945" y="1760" type="line"/>
      <point x="653" y="892" type="line"/>
      <point x="968" y="0" type="line"/>
      <point x="685" y="0" type="line"/>
      <point x="402" y="822" type="line"/>
      <point x="402" y="0" type="line"/>
      <point x="132" y="0" type="line"/>
      <point x="132" y="1760" type="line"/>
      <point x="400" y="1760" type="line"/>
      <point x="400" y="950" type="line"/>
    </contour>
  </outline>
</glyph>
<glyph name="L" format="1">
  <advance width="752"/>
  <unicode hex="004C"/>
  <outline>
    <contour>
      <point x="132" y="1760" type="line"/>
      <point x="400" y="1760" type="line"/>
      <point x="400" y="228" type="line"/>
      <point x="739" y="228" type="line"/>
      <point x="739" y="0" type="line"/>
      <point x="132" y="0" type="line"/>
    </contour>
  </outline>
</glyph>
<glyph name="M" format="1">
  <advance width="1418"/>
  <unicode hex="004D"/>
  <outline>
    <contour>
      <point x="950" y="1760" type="line"/>
      <point x="1285" y="1760" type="line"/>
      <point x="1285" y="0" type="line"/>
      <point x="1046" y="0" type="line"/>
      <point x="1046" y="656" type="line"/>
      <point x="1056" y="1258" type="line"/>
      <point x="819" y="8" type="line"/>
      <point x="606" y="8" type="line"/>
      <point x="359" y="1258" type="line"/>
      <point x="369" y="656" type="line"/>
      <point x="369" y="0" type="line"/>
      <point x="132" y="0" type="line"/>
      <point x="132" y="1760" type="line"/>
      <point x="465" y="1760" type="line"/>
      <point x="715" y="474" type="line"/>
    </contour>
  </outline>
</glyph>
<glyph name="N" format="1">
  <advance width="1069"/>
  <unicode hex="004E"/>
  <outline>
    <contour>
      <point x="696" y="1760" type="line"/>
      <point x="937" y="1760" type="line"/>
      <point x="937" y="0" type="line"/>
      <point x="747" y="0" type="line"/>
      <point x="364" y="1093" type="line"/>
      <point x="379" y="631" type="line"/>
      <point x="379" y="0" type="line"/>
      <point x="132" y="0" type="line"/>
      <point x="132" y="1760" type="line"/>
      <point x="342" y="1760" type="line"/>
      <point x="715" y="704" type="line"/>
      <point x="696" y="1184" type="line"/>
    </contour>
  </outline>
</glyph>
<glyph name="O" format="1">
  <advance width="999"/>
  <unicode hex="004F"/>
  <outline>
    <contour>
      <point x="110" y="1297" type="line" smooth="yes"/>
      <point x="110" y="1600"/>
      <point x="223" y="1781"/>
      <point x="505" y="1781" type="curve" smooth="yes"/>
      <point x="787" y="1781"/>
      <point x="888" y="1600"/>
      <point x="888" y="1297" type="curve" smooth="yes"/>
      <point x="888" y="492" type="line" smooth="yes"/>
      <point x="888" y="155"/>
      <point x="776" y="-20"/>
      <point x="502" y="-20" type="curve" smooth="yes"/>
      <point x="228" y="-20"/>
      <point x="110" y="155"/>
      <point x="110" y="492" type="curve" smooth="yes"/>
    </contour>
    <contour>
      <point x="619" y="1309" type="line" smooth="yes"/>
      <point x="619" y="1462"/>
      <point x="600" y="1549"/>
      <point x="505" y="1549" type="curve" smooth="yes"/>
      <point x="408" y="1549"/>
      <point x="380" y="1467"/>
      <point x="380" y="1310" type="curve" smooth="yes"/>
      <point x="380" y="489" type="line" smooth="yes"/>
      <point x="380" y="296"/>
      <point x="397" y="212"/>
      <point x="502" y="212" type="curve" smooth="yes"/>
      <point x="601" y="212"/>
      <point x="619" y="300"/>
      <point x="619" y="489" type="curve" smooth="yes"/>
    </contour>
  </outline>
</glyph>
<glyph name="P" format="1">
  <advance width="943"/>
  <unicode hex="0050"/>
  <outline>
    <contour>
      <point x="132" y="1760" type="line"/>
      <point x="536" y="1760" type="line" smooth="yes"/>
      <point x="816" y="1760"/>
      <point x="891" y="1586"/>
      <point x="896" y="1264" type="curve"/>
      <point x="896" y="1227" type="line" smooth="yes"/>
      <point x="896" y="886"/>
      <point x="821" y="694"/>
      <point x="545" y="694" type="curve" smooth="yes"/>
      <point x="400" y="694" type="line"/>
      <point x="400" y="0" type="line"/>
      <point x="132" y="0" type="line"/>
    </contour>
    <contour>
      <point x="628" y="1264" type="line"/>
      <point x="627" y="1455"/>
      <point x="607" y="1554"/>
      <point x="494" y="1554" type="curve" smooth="yes"/>
      <point x="400" y="1554" type="line"/>
      <point x="400" y="915" type="line"/>
      <point x="492" y="915" type="line" smooth="yes"/>
      <point x="610" y="915"/>
      <point x="628" y="997"/>
      <point x="628" y="1230" type="curve" smooth="yes"/>
    </contour>
  </outline>
</glyph>
<glyph name="Q" format="1">
  <advance width="999"/>
  <unicode hex="0051"/>
  <outline>
    <component base="O"/>
    <contour>
      <point x="452" y="-5" type="line"/>
      <point x="622" y="87" type="line"/>
      <point x="848" y="-177" type="line"/>
      <point x="716" y="-292" type="line"/>
    </contour>
  </outline>
</glyph>
<glyph name="S" format="1">
  <advance width="875"/>
  <unicode hex="0053"/>
  <outline>
    <contour>
      <point x="72.5275" y="1351" type="curve" smooth="yes"/>
      <point x="72.5275" y="1629"/>
      <point x="162.527" y="1781"/>
      <point x="443.527" y="1781" type="curve" smooth="yes"/>
      <point x="726.527" y="1781"/>
      <point x="795.527" y="1603"/>
      <point x="795.527" y="1297" type="curve" smooth="yes"/>
      <point x="795.527" y="1188" type="line"/>
      <point x="548.527" y="1188" type="line"/>
      <point x="548.527" y="1314" type="line" smooth="yes"/>
      <point x="548.527" y="1474"/>
      <point x="529.527" y="1553"/>
      <point x="441.527" y="1553" type="curve" smooth="yes"/>
      <point x="358.527" y="1553"/>
      <point x="324.527" y="1499"/>
      <point x="324.527" y="1378" type="curve" smooth="yes"/>
      <point x="324.527" y="1267"/>
      <point x="367.527" y="1215"/>
      <point x="453.527" y="1123" type="curve" smooth="yes"/>
      <point x="598.527" y="966" type="line" smooth="yes"/>
      <point x="737.527" y="816"/>
      <point x="818.527" y="661"/>
      <point x="818.527" y="463" type="curve" smooth="yes"/>
      <point x="818.527" y="147"/>
      <point x="728.527" y="-20"/>
      <point x="452.527" y="-20" type="curve" smooth="yes"/>
      <point x="159.527" y="-20"/>
      <point x="74.5275" y="170"/>
      <point x="74.5275" y="495" type="curve" smooth="yes"/>
      <point x="74.5275" y="652" type="line"/>
      <point x="328.527" y="652" type="line"/>
      <point x="328.527" y="475" type="line" smooth="yes"/>
      <point x="328.527" y="285"/>
      <point x="353.527" y="209"/>
      <point x="447.527" y="209" type="curve" smooth="yes"/>
      <point x="543.527" y="209"/>
      <point x="561.527" y="273"/>
      <point x="561.527" y="433" type="curve" smooth="yes"/>
      <point x="561.527" y="565"/>
      <point x="506.527" y="667"/>
      <point x="394.527" y="784" type="curve"/>
      <point x="264.527" y="918" type="line" smooth="yes"/>
      <point x="157.527" y="1029"/>
      <point x="72.5275" y="1158"/>
    </contour>
  </outline>
</glyph>
<glyph name="T" format="1">
  <advance width="707"/>
  <unicode hex="0054"/>
  <outline>
    <contour>
      <point x="18.0822" y="1760" type="line"/>
      <point x="689.082" y="1760" type="line"/>
      <point x="689.082" y="1528" type="line"/>
      <point x="491.082" y="1528" type="line"/>
      <point x="491.082" y="0" type="line"/>
      <point x="224.082" y="0" type="line"/>
      <point x="224.082" y="1528" type="line"/>
      <point x="18.0822" y="1528" type="line"/>
    </contour>
  </outline>
</glyph>
<glyph name="U" format="1">
  <advance width="1013"/>
  <unicode hex="0055"/>
  <outline>
    <contour>
      <point x="626.919" y="1760" type="line"/>
      <point x="894.919" y="1760" type="line"/>
      <point x="894.919" y="452" type="line" smooth="yes"/>
      <point x="894.919" y="132"/>
      <point x="781.919" y="-20"/>
      <point x="507.919" y="-20" type="curve" smooth="yes"/>
      <point x="233.919" y="-20"/>
      <point x="118.919" y="132"/>
      <point x="118.919" y="452" type="curve" smooth="yes"/>
      <point x="118.919" y="1760" type="line"/>
      <point x="386.919" y="1760" type="line"/>
      <point x="386.919" y="457" type="line" smooth="yes"/>
      <point x="386.919" y="308"/>
      <point x="393.919" y="209"/>
      <point x="506.919" y="209" type="curve" smooth="yes"/>
      <point x="621.919" y="209"/>
      <point x="626.919" y="307"/>
      <point x="626.919" y="457" type="curve" smooth="yes"/>
    </contour>
  </outline>
</glyph>
<glyph name="V" format="1">
  <advance width="930"/>
  <unicode hex="0056"/>
  <outline>
    <contour>
      <point x="642.714" y="1760" type="line"/>
      <point x="892.714" y="1760" type="line"/>
      <point x="641.714" y="0" type="line"/>
      <point x="310.714" y="0" type="line"/>
      <point x="37.7143" y="1760" type="line"/>
      <point x="292.714" y="1760" type="line"/>
      <point x="407.714" y="965" type="line"/>
      <point x="478.714" y="405" type="line"/>
      <point x="485.714" y="405" type="line"/>
      <point x="546.714" y="965" type="line"/>
    </contour>
  </outline>
</glyph>
<glyph name="W" format="1">
  <advance width="1360"/>
  <unicode hex="0057"/>
  <outline>
    <contour>
      <point x="1073.52" y="1760" type="line"/>
      <point x="1314.52" y="1760" type="line"/>
      <point x="1112.52" y="0" type="line"/>
      <point x="845.517" y="0" type="line"/>
      <point x="689.517" y="1170" type="line"/>
      <point x="527.517" y="0" type="line"/>
      <point x="260.517" y="0" type="line"/>
      <point x="45.5172" y="1760" type="line"/>
      <point x="285.517" y="1760" type="line"/>
      <point x="414.517" y="506" type="line"/>
      <point x="578.517" y="1760" type="line"/>
      <point x="794.517" y="1760" type="line"/>
      <point x="959.517" y="506" type="line"/>
    </contour>
  </outline>
</glyph>
<glyph name="X" format="1">
  <advance width="897"/>
  <unicode hex="0058"/>
  <outline>
    <contour>
      <point x="584.25" y="1760" type="line"/>
      <point x="835.25" y="1760" type="line"/>
      <point x="569.25" y="859" type="line"/>
      <point x="856.25" y="0" type="line"/>
      <point x="624.25" y="0" type="line"/>
      <point x="445.25" y="541" type="line"/>
      <point x="300.25" y="0" type="line"/>
      <point x="41.25" y="0" type="line"/>
      <point x="312.25" y="944" type="line"/>
      <point x="42.25" y="1760" type="line"/>
      <point x="268.25" y="1760" type="line"/>
      <point x="443.25" y="1237" type="line"/>
    </contour>
  </outline>
</glyph>
<glyph name="Y" format="1">
  <advance width="878"/>
  <unicode hex="0059"/>
  <outline>
    <contour>
      <point x="606.368" y="1760" type="line"/>
      <point x="861.368" y="1760" type="line"/>
      <point x="580.368" y="703" type="line"/>
      <point x="580.368" y="0" type="line"/>
      <point x="312.368" y="0" type="line"/>
      <point x="312.368" y="703" type="line"/>
      <point x="17.3684" y="1760" type="line"/>
      <point x="273.368" y="1760" type="line"/>
      <point x="447.368" y="1102" type="line"/>
      <point x="451.368" y="1102" type="line"/>
    </contour>
  </outline>
</glyph>
<glyph name="Z" format="1">
  <advance width="748"/>
  <unicode hex="005A"/>
  <outline>
    <contour>
      <point x="95.8571" y="1760" type="line"/>
      <point x="708.857" y="1760" type="line"/>
      <point x="708.857" y="1543" type="line"/>
      <point x="343.857" y="231" type="line"/>
      <point x="700.857" y="231" type="line"/>
      <point x="700.857" y="0" type="line"/>
      <point x="62.8571" y="0" type="line"/>
      <point x="62.8571" y="238" type="line"/>
      <point x="427.857" y="1529" type="line"/>
      <point x="95.8571" y="1529" type="line"/>
    </contour>
  </outline>
</glyph>
<glyph name="bracketleft" format="1">
  <advance width="764"/>
  <unicode hex="005B"/>
  <outline>
    <contour>
      <point x="179" y="1760" type="line"/>
      <point x="650" y="1760" type="line"/>
      <point x="650" y="1552" type="line"/>
      <point x="445" y="1552" type="line"/>
      <point x="445" y="209" type="line"/>
      <point x="650" y="209" type="line"/>
      <point x="650" y="0" type="line"/>
      <point x="179" y="0" type="line"/>
    </contour>
  </outline>
</glyph>
<glyph name="backslash" format="1">
  <advance width="868"/>
  <unicode hex="005C"/>
  <outline>
    <contour>
      <point x="96" y="1760" type="line"/>
      <point x="334" y="1760" type="line"/>
      <point x="744" y="0" type="line"/>
      <point x="507" y="0" type="line"/>
    </contour>
  </outline>
</glyph>
<glyph name="bracketright" format="1">
  <advance width="764"/>
  <unicode hex="005D"/>
  <outline>
    <contour>
      <point x="606" y="1760" type="line"/>
      <point x="606" y="0" type="line"/>
      <point x="135" y="0" type="line"/>
      <point x="135" y="209" type="line"/>
      <point x="340" y="209" type="line"/>
      <point x="340" y="1552" type="line"/>
      <point x="135" y="1552" type="line"/>
      <point x="135" y="1760" type="line"/>
    </contour>
  </outline>
</glyph>
<glyph name="asciicircum" format="1">
  <advance width="1030"/>
  <unicode hex="005E"/>
  <outline>
    <contour>
      <point x="355" y="1500" type="line"/>
      <point x="674" y="1500" type="line"/>
      <point x="915" y="576" type="line"/>
      <point x="659" y="576" type="line"/>
      <point x="515" y="1288" type="line"/>
      <point x="371" y="576" type="line"/>
      <point x="114" y="576" type="line"/>
    </contour>
  </outline>
</glyph>
<glyph name="grave" format="1">
  <advance width="650"/>
  <unicode hex="0060"/>
  <outline>
    <contour>
      <point x="334" y="881" type="line"/>
      <point x="490" y="881" type="line"/>
      <point x="396" y="1294" type="line"/>
      <point x="131" y="1294" type="line"/>
    </contour>
  </outline>
</glyph>
<glyph name="b" format="1">
  <advance width="998"/>
  <unicode hex="0062"/>
  <outline>
    <contour>
      <point x="622" y="1073" type="line" smooth="yes"/>
      <point x="622" y="1209"/>
      <point x="612" y="1304"/>
      <point x="521" y="1304" type="curve" smooth="yes"/>
      <point x="438" y="1304"/>
      <point x="400" y="1253"/>
      <point x="400" y="1074" type="curve" smooth="yes"/>
      <point x="400" y="456" type="line" smooth="yes"/>
      <point x="400" y="291"/>
      <point x="418" y="197"/>
      <point x="519" y="197" type="curve" smooth="yes"/>
      <point x="611" y="197"/>
      <point x="622" y="287"/>
      <point x="622" y="459" type="curve" smooth="yes"/>
    </contour>
    <contour>
      <point x="400" y="1392" type="line"/>
      <point x="430" y="1470"/>
      <point x="515" y="1517"/>
      <point x="588" y="1518" type="curve" smooth="yes"/>
      <point x="825" y="1522"/>
      <point x="888" y="1333"/>
      <point x="888" y="1069" type="curve" smooth="yes"/>
      <point x="888" y="434" type="line" smooth="yes"/>
      <point x="888" y="179"/>
      <point x="824" y="-15"/>
      <point x="608" y="-15" type="curve" smooth="yes"/>
      <point x="519" y="-15"/>
      <point x="442" y="31"/>
      <point x="400" y="140" type="curve"/>
      <point x="400" y="0" type="line"/>
      <point x="135" y="0" type="line"/>
      <point x="135" y="1775" type="line"/>
      <point x="400" y="1775" type="line"/>
    </contour>
  </outline>
</glyph>
<glyph name="e" format="1">
  <advance width="945"/>
  <unicode hex="0065"/>
  <outline>
    <contour>
      <point x="110" y="1058" type="line" smooth="yes"/>
      <point x="110" y="1338"/>
      <point x="218" y="1518"/>
      <point x="493" y="1518" type="curve" smooth="yes"/>
      <point x="773" y="1518"/>
      <point x="854" y="1340"/>
      <point x="854" y="1053" type="curve" smooth="yes"/>
      <point x="854" y="732" type="line"/>
      <point x="377" y="732" type="line"/>
      <point x="377" y="437" type="line" smooth="yes"/>
      <point x="377" y="291"/>
      <point x="385" y="196"/>
      <point x="487" y="196" type="curve" smooth="yes"/>
      <point x="589" y="196"/>
      <point x="590" y="296"/>
      <point x="590" y="437" type="curve" smooth="yes"/>
      <point x="590" y="569" type="line"/>
      <point x="852" y="569" type="line"/>
      <point x="852" y="489" type="line" smooth="yes"/>
      <point x="852" y="167"/>
      <point x="793" y="-18"/>
      <point x="481" y="-18" type="curve" smooth="yes"/>
      <point x="180" y="-18"/>
      <point x="110" y="183"/>
      <point x="110" y="499" type="curve" smooth="yes"/>
    </contour>
    <contour>
      <point x="590" y="1079" type="line" smooth="yes"/>
      <point x="590" y="1229"/>
      <point x="576" y="1309"/>
      <point x="491" y="1309" type="curve" smooth="yes"/>
      <point x="385" y="1309"/>
      <point x="376" y="1208"/>
      <point x="376" y="1072" type="curve" smooth="yes"/>
      <point x="376" y="887" type="line"/>
      <point x="590" y="887" type="line"/>
    </contour>
  </outline>
</glyph>
<glyph name="f" format="1">
  <advance width="660"/>
  <unicode hex="0066"/>
  <outline>
    <contour>
      <point x="183" y="1519" type="line" smooth="yes"/>
      <point x="183" y="1687"/>
      <point x="273" y="1784"/>
      <point x="434" y="1784" type="curve" smooth="yes"/>
      <point x="516" y="1784"/>
      <point x="583" y="1765"/>
      <point x="599" y="1759" type="curve"/>
      <point x="599" y="1593" type="line"/>
      <point x="577" y="1596"/>
      <point x="557" y="1597"/>
      <point x="539" y="1597" type="curve" smooth="yes"/>
      <point x="471" y="1597"/>
      <point x="447" y="1569"/>
      <point x="447" y="1511" type="curve" smooth="yes"/>
      <point x="447" y="1441" type="line"/>
      <point x="599" y="1441" type="line"/>
      <point x="599" y="1250" type="line"/>
      <point x="447" y="1250" type="line"/>
      <point x="447" y="0" type="line"/>
      <point x="182" y="0" type="line"/>
      <point x="182" y="1250" type="line"/>
      <point x="66" y="1250" type="line"/>
      <point x="66" y="1441" type="line"/>
      <point x="183" y="1441" type="line"/>
    </contour>
  </outline>
</glyph>
<glyph name="g" format="1">
  <advance width="990"/>
  <unicode hex="0067"/>
  <outline>
    <contour>
      <point x="114" y="1065" type="line" smooth="yes"/>
      <point x="114" y="1326"/>
      <point x="181" y="1520"/>
      <point x="402" y="1518" type="curve" smooth="yes"/>
      <point x="505" y="1518"/>
      <point x="573" y="1464"/>
      <point x="600" y="1367" type="curve"/>
      <point x="600" y="1500" type="line"/>
      <point x="865" y="1500" type="line"/>
      <point x="865" y="185" type="line" smooth="yes"/>
      <point x="865" y="-53"/>
      <point x="768" y="-220"/>
      <point x="469" y="-225" type="curve" smooth="yes"/>
      <point x="303" y="-228"/>
      <point x="195" y="-195"/>
      <point x="100" y="-118" type="curve"/>
      <point x="193" y="49" type="line"/>
      <point x="264" y="4"/>
      <point x="346" y="-29"/>
      <point x="444" y="-27" type="curve"/>
      <point x="545" y="-26"/>
      <point x="600" y="49"/>
      <point x="600" y="165" type="curve" smooth="yes"/>
      <point x="600" y="284" type="line"/>
      <point x="565" y="184"/>
      <point x="492" y="153"/>
      <point x="391" y="153" type="curve" smooth="yes"/>
      <point x="178" y="153"/>
      <point x="114" y="335"/>
      <point x="114" y="582" type="curve" smooth="yes"/>
    </contour>
    <contour>
      <point x="600" y="1087" type="line" smooth="yes"/>
      <point x="600" y="1219"/>
      <point x="573" y="1304"/>
      <point x="489" y="1304" type="curve" smooth="yes"/>
      <point x="392" y="1304"/>
      <point x="381" y="1213"/>
      <point x="381" y="1088" type="curve" smooth="yes"/>
      <point x="381" y="594" type="line" smooth="yes"/>
      <point x="381" y="446"/>
      <point x="399" y="354"/>
      <point x="496" y="354" type="curve" smooth="yes"/>
      <point x="567" y="354"/>
      <point x="600" y="408"/>
      <point x="600" y="596" type="curve" smooth="yes"/>
    </contour>
  </outline>
</glyph>
<glyph name="h" format="1">
  <advance width="1020"/>
  <unicode hex="0068"/>
  <outline>
    <contour>
      <point x="135" y="1775" type="line"/>
      <point x="400" y="1775" type="line"/>
      <point x="400" y="1328" type="line"/>
      <point x="426" y="1430"/>
      <point x="510" y="1518"/>
      <point x="633" y="1518" type="curve" smooth="yes"/>
      <point x="807" y="1518"/>
      <point x="897" y="1399"/>
      <point x="897" y="1181" type="curve" smooth="yes"/>
      <point x="897" y="0" type="line"/>
      <point x="633" y="0" type="line"/>
      <point x="633" y="1156" type="line" smooth="yes"/>
      <point x="633" y="1252"/>
      <point x="595" y="1301"/>
      <point x="527" y="1301" type="curve" smooth="yes"/>
      <point x="444" y="1301"/>
      <point x="400" y="1227"/>
      <point x="400" y="1115" type="curve" smooth="yes"/>
      <point x="400" y="0" type="line"/>
      <point x="135" y="0" type="line"/>
    </contour>
  </outline>
</glyph>
<glyph name="i" format="1">
  <advance width="530"/>
  <unicode hex="0069"/>
  <outline>
    <contour>
      <point x="135" y="1500" type="line"/>
      <point x="400" y="1500" type="line"/>
      <point x="400" y="0" type="line"/>
      <point x="135" y="0" type="line"/>
    </contour>
    <contour>
      <point x="132" y="1868" type="line"/>
      <point x="399" y="1868" type="line"/>
      <point x="399" y="1638" type="line"/>
      <point x="132" y="1638" type="line"/>
    </contour>
  </outline>
</glyph>
<glyph name="j" format="1">
  <advance width="556"/>
  <unicode hex="006A"/>
  <outline>
    <contour>
      <point x="168" y="1500" type="line"/>
      <point x="433" y="1500" type="line"/>
      <point x="433" y="79" type="line" smooth="yes"/>
      <point x="433" y="-109"/>
      <point x="351" y="-193"/>
      <point x="221" y="-196" type="curve"/>
      <point x="146" y="-200"/>
      <point x="73" y="-189"/>
      <point x="60" y="-180" type="curve"/>
      <point x="60" y="3" type="line"/>
      <point x="64" y="2"/>
      <point x="88" y="0"/>
      <point x="105" y="2" type="curve"/>
      <point x="153" y="4"/>
      <point x="168" y="32"/>
      <point x="168" y="69" type="curve" smooth="yes"/>
    </contour>
    <contour>
      <point x="164" y="1868" type="line"/>
      <point x="431" y="1868" type="line"/>
      <point x="431" y="1638" type="line"/>
      <point x="164" y="1638" type="line"/>
    </contour>
  </outline>
</glyph>
<glyph name="k" format="1">
  <advance width="961"/>
  <unicode hex="006B"/>
  <outline>
    <contour>
      <point x="135" y="1775" type="line"/>
      <point x="400" y="1775" type="line"/>
      <point x="400" y="818" type="line"/>
      <point x="656" y="1500" type="line"/>
      <point x="925" y="1500" type="line"/>
      <point x="636" y="762" type="line"/>
      <point x="942" y="0" type="line"/>
      <point x="672" y="0" type="line"/>
      <point x="400" y="713" type="line"/>
      <point x="400" y="0" type="line"/>
      <point x="135" y="0" type="line"/>
    </contour>
  </outline>
</glyph>
<glyph name="l" format="1">
  <advance width="531"/>
  <unicode hex="006C"/>
  <outline>
    <contour>
      <point x="132" y="1775" type="line"/>
      <point x="396" y="1775" type="line"/>
      <point x="396" y="0" type="line"/>
      <point x="132" y="0" type="line"/>
    </contour>
  </outline>
</glyph>
<glyph name="m" format="1">
  <advance width="1504"/>
  <unicode hex="006D"/>
  <outline>
    <contour>
      <point x="1117" y="0" type="line"/>
      <point x="1117" y="1152" type="line" smooth="yes"/>
      <point x="1117" y="1259"/>
      <point x="1079" y="1301"/>
      <point x="1016" y="1301" type="curve" smooth="yes"/>
      <point x="936" y="1301"/>
      <point x="889" y="1245"/>
      <point x="889" y="1138" type="curve" smooth="yes"/>
      <point x="889" y="0" type="line"/>
      <point x="624" y="0" type="line"/>
      <point x="624" y="1154" type="line" smooth="yes"/>
      <point x="624" y="1243"/>
      <point x="596" y="1301"/>
      <point x="526" y="1301" type="curve" smooth="yes"/>
      <point x="434" y="1301"/>
      <point x="396" y="1220"/>
      <point x="396" y="1124" type="curve" smooth="yes"/>
      <point x="396" y="0" type="line"/>
      <point x="131" y="0" type="line"/>
      <point x="131" y="1500" type="line"/>
      <point x="396" y="1500" type="line"/>
      <point x="396" y="1337" type="line"/>
      <point x="425" y="1443"/>
      <point x="501" y="1518"/>
      <point x="636" y="1518" type="curve" smooth="yes"/>
      <point x="738" y="1518"/>
      <point x="817" y="1477"/>
      <point x="858" y="1367" type="curve"/>
      <point x="908" y="1460"/>
      <point x="989" y="1518"/>
      <point x="1113" y="1518" type="curve" smooth="yes"/>
      <point x="1308" y="1518"/>
      <point x="1381" y="1380"/>
      <point x="1381" y="1149" type="curve" smooth="yes"/>
      <point x="1381" y="0" type="line"/>
    </contour>
  </outline>
</glyph>
<glyph name="n" format="1">
  <advance width="1020"/>
  <unicode hex="006E"/>
  <outline>
    <contour>
      <point x="396" y="1328" type="line"/>
      <point x="422" y="1430"/>
      <point x="513" y="1518"/>
      <point x="637" y="1518" type="curve" smooth="yes"/>
      <point x="810" y="1518"/>
      <point x="897" y="1399"/>
      <point x="897" y="1181" type="curve" smooth="yes"/>
      <point x="897" y="0" type="line"/>
      <point x="632" y="0" type="line"/>
      <point x="632" y="1165" type="line" smooth="yes"/>
      <point x="632" y="1252"/>
      <point x="590" y="1304"/>
      <point x="522" y="1304" type="curve" smooth="yes"/>
      <point x="439" y="1304"/>
      <point x="396" y="1232"/>
      <point x="396" y="1127" type="curve" smooth="yes"/>
      <point x="396" y="0" type="line"/>
      <point x="131" y="0" type="line"/>
      <point x="131" y="1500" type="line"/>
      <point x="396" y="1500" type="line"/>
    </contour>
  </outline>
</glyph>
<glyph name="q" format="1">
  <advance width="994"/>
  <unicode hex="0071"/>
  <outline>
    <contour>
      <point x="110" y="1048" type="line" smooth="yes"/>
      <point x="110" y="1311"/>
      <point x="171" y="1515"/>
      <point x="389" y="1515" type="curve" smooth="yes"/>
      <point x="473" y="1515"/>
      <point x="558" y="1476"/>
      <point x="597" y="1386" type="curve"/>
      <point x="597" y="1500" type="line"/>
      <point x="862" y="1500" type="line"/>
      <point x="862" y="-285" type="line"/>
      <point x="597" y="-285" type="line"/>
      <point x="597" y="102" type="line"/>
      <point x="570" y="37"/>
      <point x="494" y="-18"/>
      <point x="411" y="-18" type="curve" smooth="yes"/>
      <point x="163" y="-18"/>
      <point x="110" y="194"/>
      <point x="110" y="481" type="curve" smooth="yes"/>
    </contour>
    <contour>
      <point x="597" y="1063" type="line" smooth="yes"/>
      <point x="597" y="1226"/>
      <point x="569" y="1303"/>
      <point x="481" y="1303" type="curve" smooth="yes"/>
      <point x="390" y="1303"/>
      <point x="376" y="1213"/>
      <point x="376" y="1058" type="curve" smooth="yes"/>
      <point x="376" y="436" type="line" smooth="yes"/>
      <point x="376" y="299"/>
      <point x="384" y="196"/>
      <point x="478" y="196" type="curve" smooth="yes"/>
      <point x="562" y="196"/>
      <point x="597" y="252"/>
      <point x="597" y="429" type="curve" smooth="yes"/>
    </contour>
  </outline>
</glyph>
<glyph name="r" format="1">
  <advance width="697"/>
  <unicode hex="0072"/>
  <outline>
    <contour>
      <point x="399" y="1333" type="line"/>
      <point x="433" y="1449"/>
      <point x="521" y="1518"/>
      <point x="654" y="1518" type="curve" smooth="yes"/>
      <point x="659" y="1518"/>
      <point x="657" y="1294"/>
      <point x="657" y="1294" type="curve"/>
      <point x="564" y="1294"/>
      <point x="434" y="1263"/>
      <point x="399" y="1190" type="curve"/>
      <point x="399" y="0" type="line"/>
      <point x="132" y="0" type="line"/>
      <point x="132" y="1500" type="line"/>
      <point x="399" y="1500" type="line"/>
    </contour>
  </outline>
</glyph>
<glyph name="s" format="1">
  <advance width="862"/>
  <unicode hex="0073"/>
  <outline>
    <contour>
      <point x="79.7101" y="1150" type="curve" smooth="yes"/>
      <point x="79.7101" y="1404"/>
      <point x="200.71" y="1518"/>
      <point x="434.71" y="1518" type="curve" smooth="yes"/>
      <point x="662.71" y="1518"/>
      <point x="772.71" y="1402"/>
      <point x="772.71" y="1083" type="curve" smooth="yes"/>
      <point x="772.71" y="1001" type="line"/>
      <point x="535.71" y="1001" type="line"/>
      <point x="535.71" y="1100" type="line" smooth="yes"/>
      <point x="535.71" y="1232"/>
      <point x="509.71" y="1301"/>
      <point x="436.71" y="1301" type="curve" smooth="yes"/>
      <point x="366.71" y="1301"/>
      <point x="334.71" y="1267"/>
      <point x="331.71" y="1168" type="curve"/>
      <point x="330.71" y="1088"/>
      <point x="363.71" y="1014"/>
      <point x="437.71" y="943" type="curve"/>
      <point x="579.71" y="814" type="line"/>
      <point x="726.71" y="677"/>
      <point x="798.71" y="535"/>
      <point x="798.71" y="365" type="curve" smooth="yes"/>
      <point x="798.71" y="113"/>
      <point x="688.71" y="-19"/>
      <point x="441.71" y="-19" type="curve" smooth="yes"/>
      <point x="200.71" y="-19"/>
      <point x="84.7101" y="109"/>
      <point x="84.7101" y="421" type="curve" smooth="yes"/>
      <point x="84.7101" y="518" type="line"/>
      <point x="333.71" y="518" type="line"/>
      <point x="333.71" y="397" type="line" smooth="yes"/>
      <point x="333.71" y="266"/>
      <point x="363.71" y="197"/>
      <point x="435.71" y="197" type="curve" smooth="yes"/>
      <point x="505.71" y="197"/>
      <point x="537.71" y="238"/>
      <point x="537.71" y="353" type="curve" smooth="yes"/>
      <point x="537.71" y="453"/>
      <point x="494.71" y="543"/>
      <point x="399.71" y="631" type="curve" smooth="yes"/>
      <point x="390.71" y="640"/>
      <point x="284.71" y="734"/>
      <point x="264.71" y="753" type="curve" smooth="yes"/>
      <point x="140.71" y="866"/>
      <point x="79.7101" y="993"/>
    </contour>
  </outline>
</glyph>
<glyph name="t" format="1">
  <advance width="638"/>
  <unicode hex="0074"/>
  <outline>
    <contour>
      <point x="166.147" y="1760" type="line"/>
      <point x="431.147" y="1760" type="line"/>
      <point x="431.147" y="1469" type="line"/>
      <point x="577.147" y="1469" type="line"/>
      <point x="577.147" y="1277" type="line"/>
      <point x="431.147" y="1277" type="line"/>
      <point x="431.147" y="275" type="line" smooth="yes"/>
      <point x="431.147" y="204"/>
      <point x="454.147" y="192"/>
      <point x="582.147" y="192" type="curve"/>
      <point x="582.147" y="-10" type="line"/>
      <point x="402.147" y="-10" type="line" smooth="yes"/>
      <point x="209.147" y="-10"/>
      <point x="166.147" y="60"/>
      <point x="166.147" y="229" type="curve" smooth="yes"/>
      <point x="166.147" y="1277" type="line"/>
      <point x="44.1472" y="1277" type="line"/>
      <point x="44.1472" y="1469" type="line"/>
      <point x="166.147" y="1469" type="line"/>
    </contour>
  </outline>
</glyph>
<glyph name="v" format="1">
  <advance width="852"/>
  <unicode hex="0076"/>
  <outline>
    <contour>
      <point x="557.923" y="1500" type="line"/>
      <point x="805.923" y="1500" type="line"/>
      <point x="588.923" y="0" type="line"/>
      <point x="263.923" y="0" type="line"/>
      <point x="46.9231" y="1500" type="line"/>
      <point x="296.923" y="1500" type="line"/>
      <point x="393.923" y="702" type="line"/>
      <point x="426.923" y="343" type="line"/>
      <point x="446.923" y="343" type="line"/>
      <point x="474.923" y="703" type="line"/>
    </contour>
  </outline>
</glyph>
<glyph name="w" format="1">
  <advance width="1258"/>
  <unicode hex="0077"/>
  <outline>
    <contour>
      <point x="987.8" y="1500" type="line"/>
      <point x="1209.8" y="1500" type="line"/>
      <point x="1019.8" y="0" type="line"/>
      <point x="787.8" y="0" type="line"/>
      <point x="635.8" y="1127" type="line"/>
      <point x="473.8" y="0" type="line"/>
      <point x="249.8" y="0" type="line"/>
      <point x="48.8" y="1500" type="line"/>
      <point x="271.8" y="1500" type="line"/>
      <point x="347.8" y="867" type="line"/>
      <point x="381.8" y="545" type="line"/>
      <point x="387.8" y="545" type="line"/>
      <point x="420.8" y="868" type="line"/>
      <point x="509.8" y="1500" type="line"/>
      <point x="584.8" y="1500" type="line"/>
      <point x="688.8" y="1500" type="line"/>
      <point x="745.8" y="1500" type="line"/>
      <point x="843.8" y="880" type="line"/>
      <point x="885.8" y="545" type="line"/>
      <point x="891.8" y="545" type="line"/>
      <point x="920.8" y="879" type="line"/>
    </contour>
  </outline>
</glyph>
<glyph name="x" format="1">
  <advance width="840"/>
  <unicode hex="0078"/>
  <outline>
    <contour>
      <point x="43.5217" y="1500" type="line"/>
      <point x="278.522" y="1500" type="line"/>
      <point x="432.522" y="1067" type="line"/>
      <point x="564.522" y="1500" type="line"/>
      <point x="798.522" y="1500" type="line"/>
      <point x="544.522" y="755" type="line"/>
      <point x="813.522" y="0" type="line"/>
      <point x="567.522" y="0" type="line"/>
      <point x="410.522" y="449" type="line"/>
      <point x="271.522" y="0" type="line"/>
      <point x="26.5217" y="0" type="line"/>
      <point x="293.522" y="783" type="line"/>
    </contour>
  </outline>
</glyph>
<glyph name="y" format="1">
  <advance width="859"/>
  <unicode hex="0079"/>
  <outline>
    <contour>
      <point x="576.581" y="1500" type="line"/>
      <point x="827.581" y="1500" type="line"/>
      <point x="567.581" y="-64" type="line"/>
      <point x="545.581" y="-207"/>
      <point x="509.581" y="-265"/>
      <point x="370.581" y="-265" type="curve" smooth="yes"/>
      <point x="88.5806" y="-265" type="line"/>
      <point x="88.5806" y="-82" type="line"/>
      <point x="175.581" y="-82" type="line" smooth="yes"/>
      <point x="234.581" y="-82"/>
      <point x="278.581" y="-76"/>
      <point x="283.581" y="-42" type="curve"/>
      <point x="293.581" y="-25"/>
      <point x="288.581" y="28"/>
      <point x="282.581" y="68" type="curve" smooth="yes"/>
      <point x="42.5806" y="1500" type="line"/>
      <point x="294.581" y="1500" type="line"/>
      <point x="390.581" y="733" type="line"/>
      <point x="430.581" y="329" type="line"/>
      <point x="452.581" y="329" type="line"/>
      <point x="488.581" y="733" type="line"/>
    </contour>
  </outline>
</glyph>
<glyph name="z" format="1">
  <advance width="732"/>
  <unicode hex="007A"/>
  <outline>
    <contour>
      <point x="98.3333" y="1500" type="line"/>
      <point x="672.333" y="1500" type="line"/>
      <point x="672.333" y="1309" type="line"/>
      <point x="344.333" y="222" type="line"/>
      <point x="658.333" y="222" type="line"/>
      <point x="658.333" y="0" type="line"/>
      <point x="73.3333" y="0" type="line"/>
      <point x="73.3333" y="200" type="line"/>
      <point x="403.333" y="1273" type="line"/>
      <point x="98.3333" y="1273" type="line"/>
    </contour>
  </outline>
</glyph>
<glyph name="braceleft" format="1">
  <advance width="798"/>
  <unicode hex="007B"/>
  <outline>
    <contour>
      <point x="614" y="1781" type="curve" smooth="yes"/>
      <point x="674" y="1781" type="line"/>
      <point x="674" y="1582" type="line"/>
      <point x="553" y="1582"/>
      <point x="535" y="1554"/>
      <point x="535" y="1430" type="curve" smooth="yes"/>
      <point x="535" y="1184" type="line" smooth="yes"/>
      <point x="535" y="932"/>
      <point x="509" y="870"/>
      <point x="376" y="830" type="curve"/>
      <point x="509" y="790"/>
      <point x="535" y="728"/>
      <point x="535" y="476" type="curve" smooth="yes"/>
      <point x="535" y="230" type="line" smooth="yes"/>
      <point x="535" y="106"/>
      <point x="553" y="78"/>
      <point x="674" y="78" type="curve"/>
      <point x="674" y="-121" type="line"/>
      <point x="614" y="-121" type="line" smooth="yes"/>
      <point x="367" y="-121"/>
      <point x="272" y="-45"/>
      <point x="272" y="217" type="curve" smooth="yes"/>
      <point x="272" y="492" type="line" smooth="yes"/>
      <point x="272" y="661"/>
      <point x="264" y="710"/>
      <point x="133" y="710" type="curve"/>
      <point x="133" y="950" type="line"/>
      <point x="264" y="950"/>
      <point x="272" y="999"/>
      <point x="272" y="1168" type="curve" smooth="yes"/>
      <point x="272" y="1443" type="line" smooth="yes"/>
      <point x="272" y="1705"/>
      <point x="367" y="1781"/>
    </contour>
  </outline>
</glyph>
<glyph name="braceright" format="1">
  <advance width="798"/>
  <unicode hex="007D"/>
  <outline>
    <contour>
      <point x="193" y="1781" type="line" smooth="yes"/>
      <point x="440" y="1781"/>
      <point x="535" y="1705"/>
      <point x="535" y="1443" type="curve" smooth="yes"/>
      <point x="535" y="1168" type="line" smooth="yes"/>
      <point x="535" y="999"/>
      <point x="543" y="950"/>
      <point x="674" y="950" type="curve"/>
      <point x="674" y="710" type="line"/>
      <point x="543" y="710"/>
      <point x="535" y="661"/>
      <point x="535" y="492" type="curve" smooth="yes"/>
      <point x="535" y="217" type="line" smooth="yes"/>
      <point x="535" y="-45"/>
      <point x="440" y="-121"/>
      <point x="193" y="-121" type="curve" smooth="yes"/>
      <point x="133" y="-121" type="line"/>
      <point x="133" y="78" type="line"/>
      <point x="254" y="78"/>
      <point x="272" y="106"/>
      <point x="272" y="230" type="curve" smooth="yes"/>
      <point x="272" y="476" type="line" smooth="yes"/>
      <point x="272" y="728"/>
      <point x="298" y="790"/>
      <point x="432" y="830" type="curve"/>
      <point x="298" y="870"/>
      <point x="272" y="932"/>
      <point x="272" y="1184" type="curve" smooth="yes"/>
      <point x="272" y="1430" type="line" smooth="yes"/>
      <point x="272" y="1554"/>
      <point x="254" y="1582"/>
      <point x="133" y="1582" type="curve"/>
      <point x="133" y="1781" type="line"/>
    </contour>
  </outline>
</glyph>
<glyph name="asciitilde" format="1">
  <advance width="1117"/>
  <unicode hex="007E"/>
  <outline>
    <contour>
      <point x="735" y="1072" type="curve"/>
      <point x="755" y="1074"/>
      <point x="798" y="1102"/>
      <point x="823" y="1183" type="curve"/>
      <point x="1009" y="1141" type="line"/>
      <point x="988" y="1060"/>
      <point x="887" y="810"/>
      <point x="766" y="810" type="curve" smooth="yes"/>
      <point x="652" y="810"/>
      <point x="473" y="914"/>
      <point x="367" y="914" type="curve" smooth="yes"/>
      <point x="319" y="914"/>
      <point x="299" y="884"/>
      <point x="272" y="821" type="curve"/>
      <point x="100" y="903" type="line"/>
      <point x="151" y="1072"/>
      <point x="230" y="1169"/>
      <point x="347" y="1169" type="curve" smooth="yes"/>
      <point x="451" y="1169"/>
      <point x="671" y="1072"/>
    </contour>
  </outline>
</glyph>
<glyph name="cent" format="1">
  <advance width="788"/>
  <unicode hex="00A2"/>
  <outline>
    <component base="c"/>
    <contour>
      <point x="416" y="1766" type="line"/>
      <point x="529" y="1766" type="line"/>
      <point x="529" y="1509" type="line"/>
      <point x="416" y="1511" type="line"/>
    </contour>
    <contour>
      <point x="416" y="4" type="line"/>
      <point x="529" y="4" type="line"/>
      <point x="529" y="-251" type="line"/>
      <point x="416" y="-251" type="line"/>
    </contour>
  </outline>
</glyph>
<glyph name="yen" format="1">
  <advance width="866"/>
  <unicode hex="00A5"/>
  <outline>
    <component base="Y"/>
    <contour>
      <point x="94" y="770" type="line"/>
      <point x="774" y="770" type="line"/>
      <point x="774" y="619" type="line"/>
      <point x="550" y="619" type="line"/>
      <point x="550" y="468" type="line"/>
      <point x="774" y="468" type="line"/>
      <point x="774" y="315" type="line"/>
      <point x="94" y="315" type="line"/>
      <point x="94" y="468" type="line"/>
      <point x="340" y="468" type="line"/>
      <point x="340" y="619" type="line"/>
      <point x="94" y="619" type="line"/>
    </contour>
  </outline>
</glyph>
<glyph name="dieresis" format="1">
  <advance width="976"/>
  <unicode hex="00A8"/>
  <outline>
    <contour>
      <point x="589" y="1129" type="line"/>
      <point x="871" y="1129" type="line"/>
      <point x="871" y="903" type="line"/>
      <point x="589" y="903" type="line"/>
    </contour>
    <contour>
      <point x="105" y="1129" type="line"/>
      <point x="387" y="1129" type="line"/>
      <point x="387" y="903" type="line"/>
      <point x="105" y="903" type="line"/>
    </contour>
  </outline>
</glyph>
<glyph name="copyright" format="1">
  <advance width="1466"/>
  <unicode hex="00A9"/>
  <outline>
    <contour>
      <point x="497" y="1048" type="line" smooth="yes"/>
      <point x="497" y="1216"/>
      <point x="571" y="1304"/>
      <point x="736" y="1304" type="curve" smooth="yes"/>
      <point x="870" y="1304"/>
      <point x="947" y="1238"/>
      <point x="947" y="1104" type="curve" smooth="yes"/>
      <point x="947" y="951" type="line"/>
      <point x="782" y="951" type="line"/>
      <point x="782" y="1052" type="line" smooth="yes"/>
      <point x="782" y="1103"/>
      <point x="767" y="1129"/>
      <point x="736" y="1129" type="curve" smooth="yes"/>
      <point x="699" y="1129"/>
      <point x="692" y="1103"/>
      <point x="692" y="1065" type="curve" smooth="yes"/>
      <point x="692" y="656" type="line" smooth="yes"/>
      <point x="692" y="626"/>
      <point x="708" y="591"/>
      <point x="736" y="591" type="curve" smooth="yes"/>
      <point x="767" y="591"/>
      <point x="782" y="613"/>
      <point x="782" y="656" type="curve" smooth="yes"/>
      <point x="782" y="805" type="line"/>
      <point x="951" y="805" type="line"/>
      <point x="951" y="642" type="line" smooth="yes"/>
      <point x="951" y="496"/>
      <point x="894" y="423"/>
      <point x="732" y="423" type="curve" smooth="yes"/>
      <point x="593" y="423"/>
      <point x="497" y="506"/>
      <point x="497" y="647" type="curve" smooth="yes"/>
    </contour>
    <contour>
      <point x="76" y="861" type="curve" smooth="yes"/>
      <point x="76" y="1234"/>
      <point x="360" y="1518"/>
      <point x="733" y="1518" type="curve" smooth="yes"/>
      <point x="1106" y="1518"/>
      <point x="1390" y="1234"/>
      <point x="1390" y="861" type="curve" smooth="yes"/>
      <point x="1390" y="488"/>
      <point x="1106" y="204"/>
      <point x="733" y="204" type="curve" smooth="yes"/>
      <point x="360" y="204"/>
      <point x="76" y="488"/>
    </contour>
    <contour>
      <point x="733" y="1389" type="curve" smooth="yes"/>
      <point x="444" y="1389"/>
      <point x="235" y="1152"/>
      <point x="235" y="861" type="curve" smooth="yes"/>
      <point x="235" y="570"/>
      <point x="444" y="333"/>
      <point x="733" y="333" type="curve" smooth="yes"/>
      <point x="1022" y="333"/>
      <point x="1231" y="570"/>
      <point x="1231" y="861" type="curve" smooth="yes"/>
      <point x="1231" y="1152"/>
      <point x="1022" y="1389"/>
    </contour>
  </outline>
</glyph>
<glyph name="ordfeminine" format="1">
  <advance width="927"/>
  <unicode hex="00AA"/>
  <outline>
    <contour>
      <point x="182" y="1259" type="curve" smooth="yes"/>
      <point x="182" y="1477"/>
      <point x="246" y="1607"/>
      <point x="481" y="1607" type="curve" smooth="yes"/>
      <point x="688" y="1607"/>
      <point x="767" y="1482"/>
      <point x="767" y="1250" type="curve" smooth="yes"/>
      <point x="767" y="397" type="line"/>
      <point x="555" y="397" type="line"/>
      <point x="555" y="507" type="line"/>
      <point x="541" y="455"/>
      <point x="475" y="385"/>
      <point x="386" y="385" type="curve" smooth="yes"/>
      <point x="223" y="385"/>
      <point x="168" y="513"/>
      <point x="166" y="709" type="curve"/>
      <point x="166" y="788" type="line" smooth="yes"/>
      <point x="166" y="1045"/>
      <point x="318" y="1082"/>
      <point x="553" y="1170" type="curve"/>
      <point x="553" y="1212" type="line" smooth="yes"/>
      <point x="553" y="1335"/>
      <point x="559" y="1437"/>
      <point x="473" y="1437" type="curve" smooth="yes"/>
      <point x="407" y="1437"/>
      <point x="391" y="1391"/>
      <point x="391" y="1281" type="curve" smooth="yes"/>
      <point x="391" y="1223" type="line"/>
      <point x="183" y="1223" type="line"/>
      <point x="182" y="1228"/>
      <point x="182" y="1251"/>
    </contour>
    <contour>
      <point x="552" y="640" type="curve"/>
      <point x="552" y="1037" type="line"/>
      <point x="421" y="981"/>
      <point x="381" y="950"/>
      <point x="381" y="831" type="curve" smooth="yes"/>
      <point x="381" y="710" type="line" smooth="yes"/>
      <point x="381" y="600"/>
      <point x="401" y="553"/>
      <point x="459" y="553" type="curve" smooth="yes"/>
      <point x="512" y="553"/>
      <point x="544" y="601"/>
    </contour>
  </outline>
</glyph>
<glyph name="logicalnot" format="1">
  <advance width="947"/>
  <unicode hex="00AC"/>
  <outline>
    <contour>
      <point x="97" y="979" type="line"/>
      <point x="826" y="979" type="line"/>
      <point x="826" y="439" type="line"/>
      <point x="602" y="439" type="line"/>
      <point x="602" y="743" type="line"/>
      <point x="97" y="743" type="line"/>
    </contour>
  </outline>
</glyph>
<glyph name="uni00AD" format="1">
  <advance width="696"/>
  <unicode hex="00AD"/>
  <outline>
    <contour>
      <point x="90" y="741" type="line"/>
      <point x="606" y="741" type="line"/>
      <point x="606" y="509" type="line"/>
      <point x="90" y="509" type="line"/>
    </contour>
  </outline>
</glyph>
<glyph name="macron" format="1">
  <advance width="696"/>
  <unicode hex="00AF"/>
  <outline>
    <contour>
      <point x="90" y="1077" type="line"/>
      <point x="597" y="1077" type="line"/>
      <point x="597" y="926" type="line"/>
      <point x="90" y="926" type="line"/>
    </contour>
  </outline>
</glyph>
<glyph name="degree" format="1">
  <advance width="915"/>
  <unicode hex="00B0"/>
  <outline>
    <contour>
      <point x="457" y="931" type="curve" smooth="yes"/>
      <point x="243" y="931"/>
      <point x="104" y="1057"/>
      <point x="104" y="1269" type="curve" smooth="yes"/>
      <point x="104" y="1480"/>
      <point x="243" y="1607"/>
      <point x="457" y="1607" type="curve" smooth="yes"/>
      <point x="671" y="1607"/>
      <point x="811" y="1480"/>
      <point x="811" y="1269" type="curve" smooth="yes"/>
      <point x="811" y="1058"/>
      <point x="671" y="931"/>
    </contour>
    <contour>
      <point x="458" y="1112" type="curve" smooth="yes"/>
      <point x="547" y="1112"/>
      <point x="600" y="1182"/>
      <point x="600" y="1269" type="curve" smooth="yes"/>
      <point x="600" y="1356"/>
      <point x="547" y="1426"/>
      <point x="458" y="1426" type="curve" smooth="yes"/>
      <point x="369" y="1426"/>
      <point x="316" y="1356"/>
      <point x="316" y="1269" type="curve" smooth="yes"/>
      <point x="316" y="1182"/>
      <point x="369" y="1112"/>
    </contour>
  </outline>
</glyph>
<glyph name="plusminus" format="1">
  <advance width="854"/>
  <unicode hex="00B1"/>
  <outline>
    <contour>
      <point x="336" y="1116" type="line"/>
      <point x="518" y="1116" type="line"/>
      <point x="518" y="885" type="line"/>
      <point x="738" y="885" type="line"/>
      <point x="738" y="708" type="line"/>
      <point x="518" y="708" type="line"/>
      <point x="518" y="475" type="line"/>
      <point x="336" y="475" type="line"/>
      <point x="336" y="708" type="line"/>
      <point x="118" y="708" type="line"/>
      <point x="118" y="885" type="line"/>
      <point x="336" y="885" type="line"/>
    </contour>
    <contour>
      <point x="156" y="295" type="line"/>
      <point x="672" y="295" type="line"/>
      <point x="672" y="112" type="line"/>
      <point x="156" y="112" type="line"/>
    </contour>
  </outline>
</glyph>
<glyph name="uni00B3" format="1">
  <advance width="856"/>
  <unicode hex="00B3"/>
  <outline>
    <contour>
      <point x="164" y="1441" type="line"/>
      <point x="163" y="1474" type="line"/>
      <point x="164" y="1682"/>
      <point x="239" y="1778"/>
      <point x="434" y="1778" type="curve" smooth="yes"/>
      <point x="624" y="1778"/>
      <point x="712" y="1676"/>
      <point x="712" y="1474" type="curve" smooth="yes"/>
      <point x="712" y="1352"/>
      <point x="681" y="1263"/>
      <point x="592" y="1233" type="curve"/>
      <point x="691" y="1191"/>
      <point x="715" y="1089"/>
      <point x="715" y="945" type="curve" smooth="yes"/>
      <point x="715" y="720"/>
      <point x="631" y="602"/>
      <point x="424" y="602" type="curve" smooth="yes"/>
      <point x="230" y="602"/>
      <point x="158" y="709"/>
      <point x="158" y="927" type="curve" smooth="yes"/>
      <point x="158" y="1005" type="line"/>
      <point x="344" y="1005" type="line"/>
      <point x="344" y="926" type="line" smooth="yes"/>
      <point x="344" y="805"/>
      <point x="357" y="756"/>
      <point x="432" y="756" type="curve" smooth="yes"/>
      <point x="508" y="756"/>
      <point x="519" y="818"/>
      <point x="519" y="946" type="curve" smooth="yes"/>
      <point x="519" y="1086"/>
      <point x="495" y="1157"/>
      <point x="395" y="1157" type="curve" smooth="yes"/>
      <point x="366" y="1157" type="line"/>
      <point x="366" y="1297" type="line"/>
      <point x="392" y="1297" type="line"/>
      <point x="485" y="1301"/>
      <point x="519" y="1339"/>
      <point x="519" y="1472" type="curve" smooth="yes"/>
      <point x="519" y="1594"/>
      <point x="485" y="1625"/>
      <point x="434" y="1625" type="curve" smooth="yes"/>
      <point x="371" y="1625"/>
      <point x="352" y="1582"/>
      <point x="352" y="1469" type="curve" smooth="yes"/>
      <point x="352" y="1463"/>
      <point x="351" y="1447"/>
      <point x="351" y="1441" type="curve"/>
    </contour>
  </outline>
</glyph>
<glyph name="acute" format="1">
  <advance width="650"/>
  <unicode hex="00B4"/>
  <outline>
    <contour>
      <point x="148" y="1716" type="line"/>
      <point x="304" y="1716" type="line"/>
      <point x="496" y="2158" type="line"/>
      <point x="238" y="2158" type="line"/>
    </contour>
  </outline>
</glyph>
<glyph name="paragraph" format="1">
  <advance width="1119"/>
  <unicode hex="00B6"/>
  <outline>
    <contour>
      <point x="641" y="1760" type="curve" smooth="yes"/>
      <point x="973" y="1760" type="line"/>
      <point x="973" y="0" type="line"/>
      <point x="779" y="0" type="line"/>
      <point x="779" y="1527" type="line"/>
      <point x="636" y="1527" type="line"/>
      <point x="636" y="0" type="line"/>
      <point x="442" y="0" type="line"/>
      <point x="442" y="1087" type="line"/>
      <point x="218" y="1112"/>
      <point x="109" y="1217"/>
      <point x="109" y="1437" type="curve" smooth="yes"/>
      <point x="109" y="1704"/>
      <point x="292" y="1760"/>
    </contour>
  </outline>
</glyph>
<glyph name="periodcentered" format="1">
  <advance width="480"/>
  <unicode hex="00B7"/>
  <outline>
    <contour>
      <point x="132" y="995" type="line"/>
      <point x="363" y="995" type="line"/>
      <point x="363" y="750" type="line"/>
      <point x="132" y="750" type="line"/>
    </contour>
  </outline>
</glyph>
<glyph name="cedilla" format="1">
  <advance width="1015"/>
  <unicode hex="00B8"/>
  <outline>
    <contour>
      <point x="428" y="0" type="line"/>
      <point x="510" y="0" type="line"/>
      <point x="525" y="-141" type="line"/>
      <point x="676" y="-193"/>
      <point x="753" y="-290"/>
      <point x="753" y="-396" type="curve" smooth="yes"/>
      <point x="753" y="-522"/>
      <point x="649" y="-638"/>
      <point x="466" y="-638" type="curve" smooth="yes"/>
      <point x="416" y="-638"/>
      <point x="366" y="-630"/>
      <point x="317" y="-612" type="curve"/>
      <point x="317" y="-501" type="line"/>
      <point x="506" y="-501"/>
      <point x="548" y="-434"/>
      <point x="548" y="-359" type="curve" smooth="yes"/>
      <point x="548" y="-269"/>
      <point x="470" y="-214"/>
      <point x="388" y="-196" type="curve"/>
    </contour>
  </outline>
</glyph>
<glyph name="uni00B9" format="1">
  <advance width="628"/>
  <unicode hex="00B9"/>
  <outline>
    <contour>
      <point x="295" y="1760" type="curve"/>
      <point x="444" y="1760" type="line"/>
      <point x="444" y="564" type="line"/>
      <point x="238" y="564" type="line"/>
      <point x="238" y="1528" type="line"/>
      <point x="195" y="1496"/>
      <point x="132" y="1479"/>
      <point x="76" y="1479" type="curve"/>
      <point x="76" y="1609" type="line"/>
      <point x="154" y="1615"/>
      <point x="275" y="1676"/>
    </contour>
  </outline>
</glyph>
<glyph name="onequarter" format="1">
  <advance width="1535"/>
  <unicode hex="00BC"/>
  <outline>
    <contour>
      <point x="923" y="1767" type="line"/>
      <point x="1112" y="1767" type="line"/>
      <point x="612" y="0" type="line"/>
      <point x="423" y="0" type="line"/>
    </contour>
    <contour>
      <point x="280" y="1680" type="curve"/>
      <point x="412" y="1680" type="line"/>
      <point x="412" y="551" type="line"/>
      <point x="232" y="551" type="line"/>
      <point x="232" y="1466" type="line"/>
      <point x="195" y="1435"/>
      <point x="139" y="1419"/>
      <point x="90" y="1419" type="curve"/>
      <point x="90" y="1538" type="line"/>
      <point x="158" y="1544"/>
      <point x="260" y="1600"/>
    </contour>
    <contour>
      <point x="1127" y="1065" type="line"/>
      <point x="1350" y="1065" type="line"/>
      <point x="1350" y="324" type="line"/>
      <point x="1419" y="324" type="line"/>
      <point x="1419" y="192" type="line"/>
      <point x="1350" y="192" type="line"/>
      <point x="1350" y="0" type="line"/>
      <point x="1191" y="0" type="line"/>
      <point x="1191" y="192" type="line"/>
      <point x="902" y="192" type="line"/>
      <point x="902" y="306" type="line"/>
    </contour>
    <contour>
      <point x="1191" y="324" type="line"/>
      <point x="1191" y="864" type="line"/>
      <point x="1050" y="324" type="line"/>
    </contour>
  </outline>
</glyph>
<glyph name="onehalf" format="1">
  <advance width="1620"/>
  <unicode hex="00BD"/>
  <outline>
    <contour>
      <point x="1054" y="759" type="line"/>
      <point x="1054" y="1009"/>
      <point x="1088" y="1148"/>
      <point x="1304" y="1148" type="curve" smooth="yes"/>
      <point x="1470" y="1148"/>
      <point x="1533" y="1005"/>
      <point x="1533" y="836" type="curve" smooth="yes"/>
      <point x="1533" y="532"/>
      <point x="1311" y="392"/>
      <point x="1245" y="138" type="curve"/>
      <point x="1521" y="138" type="line"/>
      <point x="1521" y="0" type="line"/>
      <point x="1057" y="0" type="line"/>
      <point x="1057" y="58" type="line" smooth="yes"/>
      <point x="1057" y="214"/>
      <point x="1243" y="539"/>
      <point x="1313" y="624" type="curve"/>
      <point x="1345" y="675"/>
      <point x="1365" y="762"/>
      <point x="1365" y="842" type="curve" smooth="yes"/>
      <point x="1365" y="970"/>
      <point x="1337" y="1002"/>
      <point x="1296" y="1002" type="curve" smooth="yes"/>
      <point x="1255" y="1002"/>
      <point x="1225" y="970"/>
      <point x="1225" y="834" type="curve" smooth="yes"/>
      <point x="1225" y="689" type="line"/>
      <point x="1055" y="689" type="line"/>
    </contour>
    <contour>
      <point x="280" y="1680" type="curve"/>
      <point x="412" y="1680" type="line"/>
      <point x="412" y="551" type="line"/>
      <point x="232" y="551" type="line"/>
      <point x="232" y="1466" type="line"/>
      <point x="195" y="1435"/>
      <point x="139" y="1419"/>
      <point x="90" y="1419" type="curve"/>
      <point x="90" y="1538" type="line"/>
      <point x="158" y="1544"/>
      <point x="260" y="1600"/>
    </contour>
    <contour>
      <point x="923" y="1767" type="line"/>
      <point x="1112" y="1767" type="line"/>
      <point x="612" y="0" type="line"/>
      <point x="423" y="0" type="line"/>
    </contour>
  </outline>
</glyph>
<glyph name="AE" format="1">
  <advance width="1246"/>
  <unicode hex="00C6"/>
  <outline>
    <contour>
      <point x="366" y="1760" type="line"/>
      <point x="1152" y="1760" type="line"/>
      <point x="1152" y="1529" type="line"/>
      <point x="874" y="1529" type="line"/>
      <point x="874" y="1017" type="line"/>
      <point x="1136" y="1017" type="line"/>
      <point x="1136" y="785" type="line"/>
      <point x="874" y="785" type="line"/>
      <point x="874" y="231" type="line"/>
      <point x="1164" y="231" type="line"/>
      <point x="1164" y="0" type="line"/>
      <point x="606" y="0" type="line"/>
      <point x="606" y="314" type="line"/>
      <point x="366" y="314" type="line"/>
      <point x="312" y="0" type="line"/>
      <point x="52" y="0" type="line"/>
    </contour>
    <contour>
      <point x="606" y="512" type="line"/>
      <point x="606" y="1530" type="line"/>
      <point x="571" y="1529" type="line"/>
      <point x="396" y="512" type="line"/>
    </contour>
  </outline>
</glyph>
<glyph name="multiply" format="1">
  <advance width="710"/>
  <unicode hex="00D7"/>
  <outline>
    <contour>
      <point x="502" y="936" type="line"/>
      <point x="666" y="772" type="line"/>
      <point x="519" y="625" type="line"/>
      <point x="666" y="478" type="line"/>
      <point x="502" y="314" type="line"/>
      <point x="355" y="461" type="line"/>
      <point x="208" y="314" type="line"/>
      <point x="44" y="478" type="line"/>
      <point x="191" y="625" type="line"/>
      <point x="44" y="772" type="line"/>
      <point x="208" y="936" type="line"/>
      <point x="355" y="789" type="line"/>
    </contour>
  </outline>
</glyph>
<glyph name="Oslash" format="1">
  <advance width="900"/>
  <unicode hex="00D8"/>
  <outline>
    <component base="O"/>
    <contour>
      <point x="94" y="-166" type="line"/>
      <point x="822" y="1906" type="line"/>
      <point x="929" y="1870" type="line"/>
      <point x="193" y="-206" type="line"/>
    </contour>
  </outline>
</glyph>
<glyph name="eth" format="1">
  <advance width="1013"/>
  <unicode hex="00F0"/>
  <outline>
    <contour>
      <point x="269" y="1630" type="curve"/>
      <point x="406" y="1781" type="line"/>
      <point x="510" y="1765"/>
      <point x="610" y="1715"/>
      <point x="687" y="1625" type="curve"/>
      <point x="886" y="1735" type="line"/>
      <point x="952" y="1598" type="line"/>
      <point x="773" y="1498" type="line"/>
      <point x="838" y="1382"/>
      <point x="883" y="1022"/>
      <point x="883" y="857" type="curve" smooth="yes"/>
      <point x="883" y="527" type="line" smooth="yes"/>
      <point x="883" y="174"/>
      <point x="817" y="-21"/>
      <point x="491" y="-21" type="curve" smooth="yes"/>
      <point x="188" y="-21"/>
      <point x="95" y="152"/>
      <point x="95" y="483" type="curve" smooth="yes"/>
      <point x="95" y="586" type="line" smooth="yes"/>
      <point x="95" y="935"/>
      <point x="191" y="1103"/>
      <point x="441" y="1098" type="curve" smooth="yes"/>
      <point x="518" y="1097"/>
      <point x="569" y="1076"/>
      <point x="605" y="1042" type="curve"/>
      <point x="605" y="1085"/>
      <point x="586" y="1307"/>
      <point x="551" y="1378" type="curve"/>
      <point x="342" y="1262" type="line"/>
      <point x="277" y="1399" type="line"/>
      <point x="466" y="1505" type="line"/>
      <point x="410" y="1569"/>
      <point x="335" y="1607"/>
    </contour>
    <contour>
      <point x="615" y="776" type="line"/>
      <point x="607" y="831"/>
      <point x="558" y="873"/>
      <point x="482" y="873" type="curve" smooth="yes"/>
      <point x="389" y="873"/>
      <point x="363" y="801"/>
      <point x="363" y="613" type="curve" smooth="yes"/>
      <point x="363" y="434" type="line" smooth="yes"/>
      <point x="363" y="264"/>
      <point x="393" y="212"/>
      <point x="489" y="212" type="curve" smooth="yes"/>
      <point x="588" y="212"/>
      <point x="615" y="285"/>
      <point x="615" y="456" type="curve" smooth="yes"/>
    </contour>
  </outline>
</glyph>
<glyph name="divide" format="1">
  <advance width="804"/>
  <unicode hex="00F7"/>
  <outline>
    <contour>
      <point x="94" y="870" type="line"/>
      <point x="710" y="870" type="line"/>
      <point x="710" y="638" type="line"/>
      <point x="94" y="638" type="line"/>
    </contour>
    <contour>
      <point x="253" y="535" type="line"/>
      <point x="551" y="535" type="line"/>
      <point x="551" y="237" type="line"/>
      <point x="253" y="237" type="line"/>
    </contour>
    <contour>
      <point x="253" y="1274" type="line"/>
      <point x="551" y="1274" type="line"/>
      <point x="551" y="976" type="line"/>
      <point x="253" y="976" type="line"/>
    </contour>
  </outline>
</glyph>
<glyph name="oslash" format="1">
  <advance width="879"/>
  <unicode hex="00F8"/>
  <outline>
    <component base="o"/>
    <contour>
      <point x="184" y="-145" type="line"/>
      <point x="693" y="1672" type="line"/>
      <point x="794" y="1644" type="line"/>
      <point x="284" y="-173" type="line"/>
    </contour>
  </outline>
</glyph>
<glyph name="thorn" format="1">
  <advance width="1000"/>
  <unicode hex="00FE"/>
  <outline>
    <contour>
      <point x="133" y="1775" type="line"/>
      <point x="399" y="1775" type="line"/>
      <point x="399" y="1365" type="line"/>
      <point x="438" y="1463"/>
      <point x="528" y="1515"/>
      <point x="612" y="1515" type="curve" smooth="yes"/>
      <point x="842" y="1515"/>
      <point x="885" y="1312"/>
      <point x="885" y="1048" type="curve" smooth="yes"/>
      <point x="885" y="501" type="line" smooth="yes"/>
      <point x="885" y="212"/>
      <point x="850" y="-18"/>
      <point x="586" y="-18" type="curve" smooth="yes"/>
      <point x="504" y="-18"/>
      <point x="437" y="33"/>
      <point x="399" y="91" type="curve"/>
      <point x="399" y="-285" type="line"/>
      <point x="133" y="-285" type="line"/>
    </contour>
    <contour>
      <point x="620" y="1069" type="line" smooth="yes"/>
      <point x="620" y="1199"/>
      <point x="611" y="1301"/>
      <point x="517" y="1301" type="curve" smooth="yes"/>
      <point x="442" y="1301"/>
      <point x="399" y="1256"/>
      <point x="399" y="1070" type="curve" smooth="yes"/>
      <point x="399" y="440" type="line" smooth="yes"/>
      <point x="399" y="286"/>
      <point x="418" y="198"/>
      <point x="515" y="198" type="curve" smooth="yes"/>
      <point x="604" y="198"/>
      <point x="620" y="288"/>
      <point x="620" y="451" type="curve" smooth="yes"/>
    </contour>
  </outline>
</glyph>
<glyph name="Hbar" format="1">
  <advance width="1040"/>
  <unicode hex="0126"/>
  <outline>
    <component base="H"/>
    <contour>
      <point x="55" y="1509" type="line"/>
      <point x="1005" y="1509" type="line"/>
      <point x="1005" y="1378" type="line"/>
      <point x="55" y="1378" type="line"/>
    </contour>
  </outline>
</glyph>
<glyph name="hbar" format="1">
  <advance width="1016"/>
  <unicode hex="0127"/>
  <outline>
    <component base="h"/>
    <contour>
      <point x="0" y="1702" type="line"/>
      <point x="663" y="1702" type="line"/>
      <point x="663" y="1593" type="line"/>
      <point x="0" y="1593" type="line"/>
    </contour>
  </outline>
</glyph>
<glyph name="dotlessi" format="1">
  <advance width="537"/>
  <unicode hex="0131"/>
  <outline>
    <contour>
      <point x="136" y="1500" type="line"/>
      <point x="401" y="1500" type="line"/>
      <point x="401" y="0" type="line"/>
      <point x="136" y="0" type="line"/>
    </contour>
  </outline>
</glyph>
<glyph name="kgreenlandic" format="1">
  <advance width="937"/>
  <unicode hex="0138"/>
  <outline>
    <contour>
      <point x="132" y="1500" type="line"/>
      <point x="397" y="1500" type="line"/>
      <point x="397" y="818" type="line"/>
      <point x="653" y="1500" type="line"/>
      <point x="922" y="1500" type="line"/>
      <point x="633" y="762" type="line"/>
      <point x="939" y="0" type="line"/>
      <point x="669" y="0" type="line"/>
      <point x="397" y="713" type="line"/>
      <point x="397" y="0" type="line"/>
      <point x="132" y="0" type="line"/>
    </contour>
  </outline>
</glyph>
<glyph name="Lslash" format="1">
  <advance width="794"/>
  <unicode hex="0141"/>
  <outline>
    <component base="L"/>
    <contour>
      <point x="-1" y="916" type="line"/>
      <point x="615" y="1145" type="line"/>
      <point x="615" y="961" type="line"/>
      <point x="-1" y="732" type="line"/>
    </contour>
  </outline>
</glyph>
<glyph name="lslash" format="1">
  <advance width="648"/>
  <unicode hex="0142"/>
  <outline>
    <component base="l" xOffset="41"/>
    <contour>
      <point x="49" y="921" type="line"/>
      <point x="591" y="1153" type="line"/>
      <point x="591" y="960" type="line"/>
      <point x="49" y="728" type="line"/>
    </contour>
  </outline>
</glyph>
<glyph name="OE" format="1">
  <advance width="1235"/>
  <unicode hex="0152"/>
  <outline>
    <contour>
      <point x="500" y="1760" type="curve" smooth="yes"/>
      <point x="1141" y="1760" type="line"/>
      <point x="1141" y="1529" type="line"/>
      <point x="876" y="1529" type="line"/>
      <point x="876" y="1017" type="line"/>
      <point x="1125" y="1017" type="line"/>
      <point x="1125" y="785" type="line"/>
      <point x="876" y="785" type="line"/>
      <point x="876" y="231" type="line"/>
      <point x="1153" y="231" type="line"/>
      <point x="1153" y="0" type="line"/>
      <point x="497" y="0" type="line" smooth="yes"/>
      <point x="224" y="0"/>
      <point x="110" y="157"/>
      <point x="110" y="494" type="curve" smooth="yes"/>
      <point x="110" y="1295" type="line" smooth="yes"/>
      <point x="110" y="1598"/>
      <point x="218" y="1760"/>
    </contour>
    <contour>
      <point x="608" y="233" type="line"/>
      <point x="608" y="1524" type="line"/>
      <point x="500" y="1524" type="line" smooth="yes"/>
      <point x="404" y="1524"/>
      <point x="378" y="1461"/>
      <point x="378" y="1305" type="curve" smooth="yes"/>
      <point x="378" y="491" type="line" smooth="yes"/>
      <point x="378" y="298"/>
      <point x="393" y="234"/>
      <point x="497" y="233" type="curve"/>
    </contour>
  </outline>
</glyph>
<glyph name="oe" format="1">
  <advance width="1451"/>
  <unicode hex="0153"/>
  <outline>
    <contour>
      <point x="737" y="1410" type="curve"/>
      <point x="795" y="1478"/>
      <point x="876" y="1518"/>
      <point x="985" y="1518" type="curve" smooth="yes"/>
      <point x="1265" y="1518"/>
      <point x="1347" y="1340"/>
      <point x="1347" y="1053" type="curve"/>
      <point x="1347" y="1053"/>
      <point x="1347" y="752"/>
      <point x="1345" y="726" type="curve"/>
      <point x="868" y="726" type="line"/>
      <point x="868" y="437" type="line" smooth="yes"/>
      <point x="868" y="291"/>
      <point x="877" y="196"/>
      <point x="979" y="196" type="curve" smooth="yes"/>
      <point x="1081" y="196"/>
      <point x="1082" y="323"/>
      <point x="1082" y="464" type="curve" smooth="yes"/>
      <point x="1082" y="494"/>
      <point x="1082" y="566"/>
      <point x="1081" y="569" type="curve"/>
      <point x="1345" y="569" type="line"/>
      <point x="1345" y="499" type="line" smooth="yes"/>
      <point x="1345" y="177"/>
      <point x="1284" y="-18"/>
      <point x="973" y="-18" type="curve" smooth="yes"/>
      <point x="867" y="-18"/>
      <point x="791" y="21"/>
      <point x="737" y="85" type="curve"/>
      <point x="678" y="21"/>
      <point x="599" y="-18"/>
      <point x="492" y="-18" type="curve" smooth="yes"/>
      <point x="203" y="-18"/>
      <point x="110" y="167"/>
      <point x="110" y="478" type="curve" smooth="yes"/>
      <point x="110" y="1037" type="line" smooth="yes"/>
      <point x="110" y="1319"/>
      <point x="217" y="1518"/>
      <point x="492" y="1518" type="curve" smooth="yes"/>
      <point x="596" y="1518"/>
      <point x="676" y="1478"/>
    </contour>
    <contour>
      <point x="602" y="1084" type="line" smooth="yes"/>
      <point x="602" y="1219"/>
      <point x="578" y="1304"/>
      <point x="492" y="1304" type="curve" smooth="yes"/>
      <point x="402" y="1304"/>
      <point x="380" y="1219"/>
      <point x="380" y="1084" type="curve" smooth="yes"/>
      <point x="380" y="413" type="line" smooth="yes"/>
      <point x="380" y="284"/>
      <point x="400" y="196"/>
      <point x="492" y="196" type="curve" smooth="yes"/>
      <point x="580" y="196"/>
      <point x="602" y="284"/>
      <point x="602" y="413" type="curve" smooth="yes"/>
    </contour>
    <contour>
      <point x="1082" y="1079" type="line" smooth="yes"/>
      <point x="1082" y="1229"/>
      <point x="1068" y="1309"/>
      <point x="983" y="1309" type="curve" smooth="yes"/>
      <point x="877" y="1309"/>
      <point x="868" y="1195"/>
      <point x="868" y="1059" type="curve" smooth="yes"/>
      <point x="868" y="1047"/>
      <point x="869" y="919"/>
      <point x="869" y="906" type="curve"/>
      <point x="1082" y="906" type="line"/>
    </contour>
  </outline>
</glyph>
<glyph name="uni0237" format="1">
  <advance width="568"/>
  <unicode hex="0237"/>
  <outline>
    <contour>
      <point x="173" y="1500" type="line"/>
      <point x="438" y="1500" type="line"/>
      <point x="438" y="108" type="line" smooth="yes"/>
      <point x="438" y="-80"/>
      <point x="356" y="-164"/>
      <point x="225" y="-166" type="curve"/>
      <point x="151" y="-170"/>
      <point x="78" y="-159"/>
      <point x="65" y="-150" type="curve"/>
      <point x="65" y="32" type="line"/>
      <point x="69" y="32"/>
      <point x="93" y="30"/>
      <point x="110" y="31" type="curve" smooth="yes"/>
      <point x="158" y="34"/>
      <point x="173" y="61"/>
      <point x="173" y="98" type="curve" smooth="yes"/>
    </contour>
  </outline>
</glyph>
<glyph name="circumflex" format="1">
  <advance width="970"/>
  <unicode hex="02C6"/>
  <outline>
    <contour>
      <point x="334" y="1945" type="line"/>
      <point x="636" y="1945" type="line"/>
      <point x="824" y="1608" type="line"/>
      <point x="571" y="1608" type="line"/>
      <point x="485" y="1844" type="line"/>
      <point x="399" y="1608" type="line"/>
      <point x="145" y="1608" type="line"/>
    </contour>
  </outline>
</glyph>
<glyph name="caron" format="1">
  <advance width="970"/>
  <unicode hex="02C7"/>
  <outline>
    <contour>
      <point x="571" y="1946" type="line"/>
      <point x="824" y="1946" type="line"/>
      <point x="636" y="1608" type="line"/>
      <point x="334" y="1608" type="line"/>
      <point x="145" y="1946" type="line"/>
      <point x="399" y="1946" type="line"/>
      <point x="485" y="1709" type="line"/>
    </contour>
  </outline>
</glyph>
<glyph name="uni02C9" format="1">
  <advance width="696"/>
  <unicode hex="02C9"/>
  <outline>
    <contour>
      <point x="70" y="741" type="line"/>
      <point x="626" y="741" type="line"/>
      <point x="626" y="559" type="line"/>
      <point x="70" y="559" type="line"/>
    </contour>
  </outline>
</glyph>
<glyph name="breve" format="1">
  <advance width="1016"/>
  <unicode hex="02D8"/>
  <outline>
    <contour>
      <point x="638" y="1892" type="curve"/>
      <point x="789" y="1892" type="line"/>
      <point x="789" y="1879" type="line" smooth="yes"/>
      <point x="789" y="1704"/>
      <point x="698" y="1615"/>
      <point x="506" y="1615" type="curve" smooth="yes"/>
      <point x="320" y="1615"/>
      <point x="225" y="1704"/>
      <point x="225" y="1877" type="curve" smooth="yes"/>
      <point x="225" y="1892" type="line"/>
      <point x="375" y="1892" type="line"/>
      <point x="375" y="1782"/>
      <point x="434" y="1760"/>
      <point x="508" y="1760" type="curve" smooth="yes"/>
      <point x="579" y="1760"/>
      <point x="638" y="1780"/>
    </contour>
  </outline>
</glyph>
<glyph name="dotaccent" format="1">
  <advance width="572"/>
  <unicode hex="02D9"/>
  <outline>
    <contour>
      <point x="153" y="1122" type="line"/>
      <point x="424" y="1122" type="line"/>
      <point x="424" y="896" type="line"/>
      <point x="153" y="896" type="line"/>
    </contour>
  </outline>
</glyph>
<glyph name="ring" format="1">
  <advance width="923"/>
  <unicode hex="02DA"/>
  <outline>
    <contour>
      <point x="228" y="1130" type="curve" smooth="yes"/>
      <point x="228" y="1257"/>
      <point x="315" y="1354"/>
      <point x="461" y="1354" type="curve" smooth="yes"/>
      <point x="608" y="1354"/>
      <point x="694" y="1257"/>
      <point x="694" y="1130" type="curve" smooth="yes"/>
      <point x="694" y="1003"/>
      <point x="608" y="906"/>
      <point x="461" y="906" type="curve" smooth="yes"/>
      <point x="315" y="906"/>
      <point x="228" y="1002"/>
    </contour>
    <contour>
      <point x="581" y="1131" type="curve" smooth="yes"/>
      <point x="581" y="1196"/>
      <point x="541" y="1261"/>
      <point x="462" y="1261" type="curve" smooth="yes"/>
      <point x="383" y="1261"/>
      <point x="343" y="1196"/>
      <point x="343" y="1131" type="curve" smooth="yes"/>
      <point x="343" y="1065"/>
      <point x="383" y="1000"/>
      <point x="462" y="1000" type="curve" smooth="yes"/>
      <point x="541" y="1000"/>
      <point x="581" y="1065"/>
    </contour>
  </outline>
</glyph>
<glyph name="ogonek" format="1">
  <advance width="1015"/>
  <unicode hex="02DB"/>
  <outline>
    <contour>
      <point x="624" y="0" type="curve"/>
      <point x="731" y="0" type="line"/>
      <point x="630" y="-106"/>
      <point x="551" y="-231"/>
      <point x="551" y="-339" type="curve" smooth="yes"/>
      <point x="551" y="-427"/>
      <point x="612" y="-468"/>
      <point x="703" y="-468" type="curve" smooth="yes"/>
      <point x="754" y="-468"/>
      <point x="799" y="-456"/>
      <point x="812" y="-453" type="curve"/>
      <point x="812" y="-591" type="line"/>
      <point x="789" y="-604"/>
      <point x="711" y="-626"/>
      <point x="643" y="-626" type="curve" smooth="yes"/>
      <point x="458" y="-626"/>
      <point x="358" y="-531"/>
      <point x="358" y="-382" type="curve" smooth="yes"/>
      <point x="358" y="-253"/>
      <point x="447" y="-99"/>
    </contour>
  </outline>
</glyph>
<glyph name="tilde" format="1">
  <advance width="1117"/>
  <unicode hex="02DC"/>
  <outline>
    <contour>
      <point x="223" y="979" type="line"/>
      <point x="262" y="1114"/>
      <point x="327" y="1161"/>
      <point x="415" y="1161" type="curve" smooth="yes"/>
      <point x="496" y="1161"/>
      <point x="640" y="1087"/>
      <point x="690" y="1087" type="curve" smooth="yes"/>
      <point x="694" y="1087" type="line"/>
      <point x="713" y="1090"/>
      <point x="729" y="1098"/>
      <point x="750" y="1158" type="curve"/>
      <point x="892" y="1130" type="line"/>
      <point x="883" y="1082" type="line"/>
      <point x="854" y="945"/>
      <point x="800" y="906"/>
      <point x="711" y="906" type="curve" smooth="yes"/>
      <point x="623" y="906"/>
      <point x="510" y="988"/>
      <point x="427" y="988" type="curve" smooth="yes"/>
      <point x="419" y="988"/>
      <point x="411" y="988"/>
      <point x="404" y="986" type="curve" smooth="yes"/>
      <point x="382" y="981"/>
      <point x="371" y="962"/>
      <point x="353" y="927" type="curve"/>
    </contour>
  </outline>
</glyph>
<glyph name="hungarumlaut" format="1">
  <advance width="1300"/>
  <unicode hex="02DD"/>
  <outline>
    <contour>
      <point x="673" y="1000" type="line"/>
      <point x="880" y="1441" type="line"/>
      <point x="1091" y="1340" type="line"/>
      <point x="784" y="948" type="line"/>
    </contour>
    <contour>
      <point x="336" y="1000" type="line"/>
      <point x="487" y="1441" type="line"/>
      <point x="694" y="1344" type="line"/>
      <point x="449" y="953" type="line"/>
    </contour>
  </outline>
</glyph>
<glyph name="uni0307" format="1">
  <advance width="572"/>
  <unicode hex="0307"/>
  <outline>
    <contour>
      <point x="107" y="1253" type="line"/>
      <point x="465" y="1253" type="line"/>
      <point x="465" y="955" type="line"/>
      <point x="107" y="955" type="line"/>
    </contour>
  </outline>
</glyph>
<glyph name="uni0311" format="1">
  <advance width="1016"/>
  <unicode hex="0311"/>
  <outline>
    <contour>
      <point x="224" y="1657" type="line"/>
      <point x="223" y="1832"/>
      <point x="313" y="1921"/>
      <point x="505" y="1923" type="curve" smooth="yes"/>
      <point x="691" y="1925"/>
      <point x="787" y="1837"/>
      <point x="789" y="1664" type="curve"/>
      <point x="789" y="1649" type="line"/>
      <point x="638" y="1648" type="line"/>
      <point x="637" y="1758"/>
      <point x="578" y="1776"/>
      <point x="504" y="1775" type="curve" smooth="yes"/>
      <point x="433" y="1774"/>
      <point x="374" y="1757"/>
      <point x="375" y="1644" type="curve"/>
      <point x="224" y="1644" type="line"/>
    </contour>
  </outline>
</glyph>
<glyph name="commaaccentcomb" format="1">
  <advance width="528"/>
  <unicode hex="0326"/>
  <outline>
    <contour>
      <point x="121" y="5" type="line"/>
      <point x="394" y="5" type="line"/>
      <point x="394" y="-249" type="line"/>
      <point x="302" y="-562" type="line"/>
      <point x="181" y="-562" type="line"/>
      <point x="236" y="-258" type="line"/>
      <point x="121" y="-258" type="line"/>
    </contour>
  </outline>
</glyph>
<glyph name="uni03A9" format="1">
  <advance width="992"/>
  <unicode hex="03A9"/>
  <outline>
    <contour>
      <point x="47" y="0" type="line"/>
      <point x="47" y="201" type="line"/>
      <point x="209" y="201" type="line"/>
      <point x="144" y="300"/>
      <point x="72" y="419"/>
      <point x="72" y="630" type="curve" smooth="yes"/>
      <point x="72" y="1189" type="line" smooth="yes"/>
      <point x="72" y="1462"/>
      <point x="218" y="1607"/>
      <point x="496" y="1607" type="curve" smooth="yes"/>
      <point x="774" y="1607"/>
      <point x="920" y="1462"/>
      <point x="920" y="1189" type="curve" smooth="yes"/>
      <point x="920" y="630" type="line" smooth="yes"/>
      <point x="920" y="419"/>
      <point x="848" y="300"/>
      <point x="783" y="201" type="curve"/>
      <point x="945" y="201" type="line"/>
      <point x="945" y="0" type="line"/>
      <point x="549" y="0" type="line"/>
      <point x="549" y="202" type="line"/>
      <point x="624" y="240"/>
      <point x="641" y="431"/>
      <point x="641" y="581" type="curve" smooth="yes"/>
      <point x="641" y="1211" type="line" smooth="yes"/>
      <point x="641" y="1321.23"/>
      <point x="568.379" y="1376.48"/>
      <point x="495.819" y="1376.48" type="curve" smooth="yes"/>
      <point x="423.379" y="1376.48"/>
      <point x="351" y="1321.41"/>
      <point x="351" y="1211" type="curve" smooth="yes"/>
      <point x="351" y="581" type="line" smooth="yes"/>
      <point x="351" y="441"/>
      <point x="379" y="237"/>
      <point x="443" y="202" type="curve"/>
      <point x="443" y="0" type="line"/>
    </contour>
  </outline>
</glyph>
<glyph name="quoteleft" format="1">
  <advance width="586"/>
  <unicode hex="2018"/>
  <outline>
    <contour>
      <point x="255" y="1775" type="line"/>
      <point x="408" y="1775" type="line"/>
      <point x="315" y="1345" type="line"/>
      <point x="468" y="1345" type="line"/>
      <point x="468" y="1065" type="line"/>
      <point x="119" y="1065" type="line"/>
      <point x="119" y="1336" type="line"/>
    </contour>
  </outline>
</glyph>
<glyph name="quoteright" format="1">
  <advance width="586"/>
  <unicode hex="2019"/>
  <outline>
    <contour>
      <point x="129" y="1775" type="line"/>
      <point x="478" y="1775" type="line"/>
      <point x="478" y="1503" type="line"/>
      <point x="342" y="1065" type="line"/>
      <point x="188" y="1065" type="line"/>
      <point x="282" y="1494" type="line"/>
      <point x="129" y="1494" type="line"/>
    </contour>
  </outline>
</glyph>
<glyph name="quotesinglbase" format="1">
  <advance width="484"/>
  <unicode hex="201A"/>
  <outline>
    <contour>
      <point x="80" y="258" type="line"/>
      <point x="411" y="258" type="line"/>
      <point x="411" y="9" type="line"/>
      <point x="302" y="-324" type="line"/>
      <point x="138" y="-324" type="line"/>
      <point x="216" y="0" type="line"/>
      <point x="80" y="0" type="line"/>
    </contour>
  </outline>
</glyph>
<glyph name="quotedblleft" format="1">
  <advance width="1030"/>
  <unicode hex="201C"/>
  <outline>
    <contour>
      <point x="716" y="1775" type="line"/>
      <point x="880" y="1775" type="line"/>
      <point x="802" y="1403" type="line"/>
      <point x="937" y="1403" type="line"/>
      <point x="937" y="1141" type="line"/>
      <point x="606" y="1141" type="line"/>
      <point x="606" y="1394" type="line"/>
    </contour>
    <contour>
      <point x="250" y="1775" type="line"/>
      <point x="414" y="1775" type="line"/>
      <point x="336" y="1403" type="line"/>
      <point x="471" y="1403" type="line"/>
      <point x="471" y="1141" type="line"/>
      <point x="140" y="1141" type="line"/>
      <point x="140" y="1394" type="line"/>
    </contour>
  </outline>
</glyph>
<glyph name="quotedblbase" format="1">
  <advance width="1016"/>
  <unicode hex="201E"/>
  <outline>
    <contour>
      <point x="617" y="261" type="line"/>
      <point x="947" y="261" type="line"/>
      <point x="947" y="8" type="line"/>
      <point x="838" y="-373" type="line"/>
      <point x="674" y="-373" type="line"/>
      <point x="752" y="0" type="line"/>
      <point x="617" y="0" type="line"/>
    </contour>
    <contour>
      <point x="151" y="261" type="line"/>
      <point x="481" y="261" type="line"/>
      <point x="481" y="8" type="line"/>
      <point x="372" y="-373" type="line"/>
      <point x="208" y="-373" type="line"/>
      <point x="286" y="0" type="line"/>
      <point x="151" y="0" type="line"/>
    </contour>
  </outline>
</glyph>
<glyph name="dagger" format="1">
  <advance width="909"/>
  <unicode hex="2020"/>
  <outline>
    <contour>
      <point x="321" y="1592" type="line"/>
      <point x="591" y="1592" type="line"/>
      <point x="591" y="1182" type="line"/>
      <point x="818" y="1182" type="line"/>
      <point x="818" y="965" type="line"/>
      <point x="591" y="965" type="line"/>
      <point x="591" y="0" type="line"/>
      <point x="321" y="0" type="line"/>
      <point x="321" y="965" type="line"/>
      <point x="91" y="965" type="line"/>
      <point x="91" y="1182" type="line"/>
      <point x="321" y="1182" type="line"/>
    </contour>
  </outline>
</glyph>
<glyph name="perthousand" format="1">
  <advance width="3107"/>
  <unicode hex="2030"/>
  <outline>
    <contour>
      <point x="1347" y="1760" type="line"/>
      <point x="1551" y="1760" type="line"/>
      <point x="875" y="0" type="line"/>
      <point x="662" y="0" type="line"/>
    </contour>
    <contour>
      <point x="580" y="1431" type="line" smooth="yes"/>
      <point x="580" y="1547"/>
      <point x="558" y="1594"/>
      <point x="468" y="1594" type="curve" smooth="yes"/>
      <point x="378" y="1594"/>
      <point x="356" y="1546"/>
      <point x="356" y="1431" type="curve" smooth="yes"/>
      <point x="356" y="939" type="line" smooth="yes"/>
      <point x="356" y="821"/>
      <point x="381" y="768"/>
      <point x="468" y="768" type="curve" smooth="yes"/>
      <point x="555" y="768"/>
      <point x="580" y="821"/>
      <point x="580" y="939" type="curve" smooth="yes"/>
    </contour>
    <contour>
      <point x="130" y="1363" type="line" smooth="yes"/>
      <point x="130" y="1658"/>
      <point x="223" y="1781"/>
      <point x="468" y="1781" type="curve" smooth="yes"/>
      <point x="713" y="1781"/>
      <point x="806" y="1658"/>
      <point x="806" y="1363" type="curve" smooth="yes"/>
      <point x="806" y="1005" type="line" smooth="yes"/>
      <point x="806" y="713"/>
      <point x="706" y="580"/>
      <point x="468" y="580" type="curve" smooth="yes"/>
      <point x="231" y="580"/>
      <point x="130" y="713"/>
      <point x="130" y="1005" type="curve" smooth="yes"/>
    </contour>
    <contour>
      <point x="1864" y="830" type="line" smooth="yes"/>
      <point x="1864" y="946"/>
      <point x="1842" y="993"/>
      <point x="1752" y="993" type="curve" smooth="yes"/>
      <point x="1662" y="993"/>
      <point x="1640" y="945"/>
      <point x="1640" y="830" type="curve" smooth="yes"/>
      <point x="1640" y="338" type="line" smooth="yes"/>
      <point x="1640" y="220"/>
      <point x="1665" y="167"/>
      <point x="1752" y="167" type="curve" smooth="yes"/>
      <point x="1839" y="167"/>
      <point x="1864" y="220"/>
      <point x="1864" y="338" type="curve" smooth="yes"/>
    </contour>
    <contour>
      <point x="1414" y="762" type="line" smooth="yes"/>
      <point x="1414" y="1057"/>
      <point x="1507" y="1180"/>
      <point x="1752" y="1180" type="curve" smooth="yes"/>
      <point x="1997" y="1180"/>
      <point x="2090" y="1057"/>
      <point x="2090" y="762" type="curve" smooth="yes"/>
      <point x="2090" y="404" type="line" smooth="yes"/>
      <point x="2090" y="112"/>
      <point x="1990" y="-21"/>
      <point x="1752" y="-21" type="curve" smooth="yes"/>
      <point x="1514" y="-21"/>
      <point x="1414" y="112"/>
      <point x="1414" y="404" type="curve" smooth="yes"/>
    </contour>
    <contour>
      <point x="2301" y="762" type="line" smooth="yes"/>
      <point x="2301" y="1057"/>
      <point x="2394" y="1180"/>
      <point x="2639" y="1180" type="curve" smooth="yes"/>
      <point x="2885" y="1180"/>
      <point x="2978" y="1057"/>
      <point x="2978" y="762" type="curve" smooth="yes"/>
      <point x="2978" y="404" type="line" smooth="yes"/>
      <point x="2978" y="112"/>
      <point x="2877" y="-21"/>
      <point x="2639" y="-21" type="curve" smooth="yes"/>
      <point x="2402" y="-21"/>
      <point x="2301" y="112"/>
      <point x="2301" y="404" type="curve" smooth="yes"/>
    </contour>
    <contour>
      <point x="2752" y="830" type="line" smooth="yes"/>
      <point x="2752" y="946"/>
      <point x="2729" y="993"/>
      <point x="2639" y="993" type="curve" smooth="yes"/>
      <point x="2549" y="993"/>
      <point x="2527" y="945"/>
      <point x="2527" y="830" type="curve" smooth="yes"/>
      <point x="2527" y="338" type="line" smooth="yes"/>
      <point x="2527" y="220"/>
      <point x="2553" y="167"/>
      <point x="2639" y="167" type="curve" smooth="yes"/>
      <point x="2726" y="167"/>
      <point x="2752" y="220"/>
      <point x="2752" y="338" type="curve" smooth="yes"/>
    </contour>
  </outline>
</glyph>
<glyph name="guilsinglleft" format="1">
  <advance width="606"/>
  <unicode hex="2039"/>
  <outline>
    <contour>
      <point x="57" y="887" type="line"/>
      <point x="548" y="1158" type="line"/>
      <point x="548" y="890" type="line"/>
      <point x="236" y="749" type="line"/>
      <point x="548" y="599" type="line"/>
      <point x="548" y="327" type="line"/>
      <point x="57" y="612" type="line"/>
    </contour>
  </outline>
</glyph>
<glyph name="guilsinglright" format="1">
  <advance width="727"/>
  <unicode hex="203A"/>
  <outline>
    <contour>
      <point x="139" y="890" type="line"/>
      <point x="139" y="1158" type="line"/>
      <point x="630" y="887" type="line"/>
      <point x="630" y="612" type="line"/>
      <point x="139" y="327" type="line"/>
      <point x="139" y="599" type="line"/>
      <point x="451" y="749" type="line"/>
    </contour>
  </outline>
</glyph>
<glyph name="uni2074" format="1">
  <advance width="852"/>
  <unicode hex="2074"/>
  <outline>
    <contour>
      <point x="399" y="1760" type="line"/>
      <point x="662" y="1760" type="line"/>
      <point x="662" y="960" type="line"/>
      <point x="736" y="960" type="line"/>
      <point x="736" y="811" type="line"/>
      <point x="662" y="811" type="line"/>
      <point x="662" y="605" type="line"/>
      <point x="477" y="605" type="line"/>
      <point x="477" y="811" type="line"/>
      <point x="150" y="811" type="line"/>
      <point x="150" y="940" type="line"/>
    </contour>
    <contour>
      <point x="477" y="960" type="line"/>
      <point x="477" y="1519" type="line"/>
      <point x="322" y="960" type="line"/>
    </contour>
  </outline>
</glyph>
<glyph name="Euro" format="1">
  <advance width="1076"/>
  <unicode hex="20AC"/>
  <outline>
    <component base="C"/>
    <contour>
      <point x="23" y="1102" type="line"/>
      <point x="548" y="1102" type="line"/>
      <point x="548" y="966" type="line"/>
      <point x="304" y="966" type="line"/>
      <point x="304" y="869" type="line"/>
      <point x="548" y="869" type="line"/>
      <point x="548" y="725" type="line"/>
      <point x="23" y="725" type="line"/>
      <point x="23" y="869" type="line"/>
      <point x="164" y="869" type="line"/>
      <point x="164" y="966" type="line"/>
      <point x="23" y="966" type="line"/>
    </contour>
  </outline>
</glyph>
<glyph name="trademark" format="1">
  <advance width="1676"/>
  <unicode hex="2122"/>
  <outline>
    <contour>
      <point x="1273" y="1760" type="line"/>
      <point x="1561" y="1760" type="line"/>
      <point x="1561" y="507" type="line"/>
      <point x="1373" y="507" type="line"/>
      <point x="1373" y="996" type="line"/>
      <point x="1380" y="1469" type="line"/>
      <point x="1223" y="507" type="line"/>
      <point x="1038" y="507" type="line"/>
      <point x="873" y="1469" type="line"/>
      <point x="880" y="996" type="line"/>
      <point x="880" y="507" type="line"/>
      <point x="694" y="507" type="line"/>
      <point x="694" y="1760" type="line"/>
      <point x="981" y="1760" type="line"/>
      <point x="1129" y="883" type="line"/>
    </contour>
    <contour>
      <point x="82" y="1760" type="line"/>
      <point x="572" y="1760" type="line"/>
      <point x="572" y="1592" type="line"/>
      <point x="429" y="1592" type="line"/>
      <point x="429" y="507" type="line"/>
      <point x="231" y="507" type="line"/>
      <point x="231" y="1592" type="line"/>
      <point x="82" y="1592" type="line"/>
    </contour>
  </outline>
</glyph>
<glyph name="partialdiff" format="1">
  <advance width="1072"/>
  <unicode hex="2202"/>
  <outline>
    <contour>
      <point x="459" y="175" type="curve" smooth="yes"/>
      <point x="525" y="175"/>
      <point x="553.01" y="231.094"/>
      <point x="560" y="301" type="curve"/>
      <point x="647" y="879" type="line"/>
      <point x="612.777" y="893.32"/>
      <point x="583.992" y="900.76"/>
      <point x="559.797" y="900.76" type="curve" smooth="yes"/>
      <point x="497.85" y="900.76"/>
      <point x="465.992" y="851.984"/>
      <point x="450" y="745" type="curve" smooth="yes"/>
      <point x="392" y="357" type="line"/>
      <point x="388.959" y="329.051"/>
      <point x="385.638" y="299.902"/>
      <point x="385.638" y="273.334" type="curve" smooth="yes"/>
      <point x="385.638" y="218.717"/>
      <point x="399.67" y="175"/>
    </contour>
    <contour>
      <point x="167" y="343" type="curve" smooth="yes"/>
      <point x="217.325" y="708.187"/>
      <point x="216.875" y="1067.5"/>
      <point x="504.094" y="1067.5" type="curve" smooth="yes"/>
      <point x="553.362" y="1067.5"/>
      <point x="617.095" y="1056.93"/>
      <point x="685" y="1034" type="curve"/>
      <point x="718.809" y="1265.19" type="line" smooth="yes"/>
      <point x="719.992" y="1278.82"/>
      <point x="720.565" y="1291.65"/>
      <point x="720.565" y="1303.7" type="curve" smooth="yes"/>
      <point x="720.565" y="1443.42"/>
      <point x="643.613" y="1480.33"/>
      <point x="547.625" y="1480.33" type="curve" smooth="yes"/>
      <point x="492.051" y="1480.33"/>
      <point x="430.096" y="1467.96"/>
      <point x="373" y="1456" type="curve"/>
      <point x="339" y="1617" type="line"/>
      <point x="419.351" y="1639.92"/>
      <point x="503.332" y="1654.83"/>
      <point x="581.955" y="1654.83" type="curve" smooth="yes"/>
      <point x="772.286" y="1654.83"/>
      <point x="931.213" y="1567.46"/>
      <point x="931.213" y="1294.86" type="curve" smooth="yes"/>
      <point x="931.213" y="1253.87"/>
      <point x="927.62" y="1208.7"/>
      <point x="920" y="1159" type="curve" smooth="yes"/>
      <point x="780" y="246" type="line" smooth="yes"/>
      <point x="751.576" y="60.6348"/>
      <point x="591.932" y="-26.3467"/>
      <point x="453.009" y="-26.3467" type="curve" smooth="yes"/>
      <point x="297.74" y="-26.3467"/>
      <point x="162.847" y="82.3894"/>
      <point x="162.847" y="284.216" type="curve" smooth="yes"/>
      <point x="162.847" y="303.008"/>
      <point x="164.19" y="322.607"/>
    </contour>
  </outline>
</glyph>
<glyph name="product" format="1">
  <advance width="1033"/>
  <unicode hex="220F"/>
  <outline>
    <contour>
      <point x="136" y="1760" type="line"/>
      <point x="896" y="1760" type="line"/>
      <point x="896" y="0" type="line"/>
      <point x="634" y="0" type="line"/>
      <point x="634" y="1543" type="line"/>
      <point x="399" y="1543" type="line"/>
      <point x="399" y="0" type="line"/>
      <point x="136" y="0" type="line"/>
    </contour>
  </outline>
</glyph>
<glyph name="summation" format="1">
  <advance width="814"/>
  <unicode hex="2211"/>
  <outline>
    <contour>
      <point x="114" y="1761" type="line"/>
      <point x="711" y="1761" type="line"/>
      <point x="711" y="1551" type="line"/>
      <point x="387" y="1551" type="line"/>
      <point x="646" y="880" type="line"/>
      <point x="387" y="225" type="line"/>
      <point x="711" y="225" type="line"/>
      <point x="711" y="0" type="line"/>
      <point x="114" y="0" type="line"/>
      <point x="114" y="221" type="line"/>
      <point x="389" y="881" type="line"/>
      <point x="114" y="1555" type="line"/>
    </contour>
  </outline>
</glyph>
<glyph name="uni2215" format="1">
  <advance width="829"/>
  <unicode hex="2215"/>
  <outline>
    <contour>
      <point x="526" y="1767" type="line"/>
      <point x="746" y="1767" type="line"/>
      <point x="276" y="0" type="line"/>
      <point x="57" y="0" type="line"/>
    </contour>
  </outline>
</glyph>
<glyph name="radical" format="1">
  <advance width="1267"/>
  <unicode hex="221A"/>
  <outline>
    <contour>
      <point x="660" y="1500" type="line"/>
      <point x="1172" y="1500" type="line"/>
      <point x="1172" y="1300" type="line"/>
      <point x="876" y="1300" type="line"/>
      <point x="612" y="0" type="line"/>
      <point x="288" y="0" type="line"/>
      <point x="99" y="741" type="line"/>
      <point x="358" y="741" type="line"/>
      <point x="432" y="288" type="line"/>
    </contour>
  </outline>
</glyph>
<glyph name="integral" format="1">
  <advance width="767"/>
  <unicode hex="222B"/>
  <outline>
    <contour>
      <point x="254" y="1539" type="line" smooth="yes"/>
      <point x="254" y="1702"/>
      <point x="323" y="1783"/>
      <point x="469" y="1783" type="curve" smooth="yes"/>
      <point x="535" y="1783"/>
      <point x="596" y="1773"/>
      <point x="652" y="1752" type="curve"/>
      <point x="652" y="1574" type="line"/>
      <point x="621" y="1582"/>
      <point x="596" y="1587"/>
      <point x="578" y="1587" type="curve" smooth="yes"/>
      <point x="523" y="1587"/>
      <point x="510" y="1553"/>
      <point x="510" y="1484" type="curve" smooth="yes"/>
      <point x="510" y="221" type="line" smooth="yes"/>
      <point x="510" y="64"/>
      <point x="442" y="-17"/>
      <point x="290" y="-17" type="curve" smooth="yes"/>
      <point x="226" y="-17"/>
      <point x="168" y="-9"/>
      <point x="115" y="8" type="curve"/>
      <point x="115" y="186" type="line"/>
      <point x="134" y="184"/>
      <point x="150" y="182"/>
      <point x="163" y="182" type="curve" smooth="yes"/>
      <point x="246" y="182"/>
      <point x="254" y="215"/>
      <point x="254" y="305" type="curve" smooth="yes"/>
    </contour>
  </outline>
</glyph>
<glyph name="notequal" format="1">
  <advance width="884"/>
  <unicode hex="2260"/>
  <outline>
    <contour>
      <point x="154" y="0" type="line"/>
      <point x="255" y="559" type="line"/>
      <point x="103" y="559" type="line"/>
      <point x="103" y="791" type="line"/>
      <point x="297" y="791" type="line"/>
      <point x="325" y="942" type="line"/>
      <point x="103" y="942" type="line"/>
      <point x="103" y="1166" type="line"/>
      <point x="365" y="1166" type="line"/>
      <point x="474" y="1765" type="line"/>
      <point x="723" y="1765" type="line"/>
      <point x="611" y="1166" type="line"/>
      <point x="782" y="1166" type="line"/>
      <point x="782" y="942" type="line"/>
      <point x="569" y="942" type="line"/>
      <point x="540" y="791" type="line"/>
      <point x="782" y="791" type="line"/>
      <point x="782" y="559" type="line"/>
      <point x="497" y="559" type="line"/>
      <point x="392" y="0" type="line"/>
    </contour>
  </outline>
</glyph>
<glyph name="lessequal" format="1">
  <advance width="781"/>
  <unicode hex="2264"/>
  <outline>
    <contour>
      <point x="82" y="947" type="line"/>
      <point x="656" y="1312" type="line"/>
      <point x="656" y="1037" type="line"/>
      <point x="259" y="801" type="line"/>
      <point x="656" y="558" type="line"/>
      <point x="656" y="286" type="line"/>
      <point x="82" y="655" type="line"/>
    </contour>
    <contour>
      <point x="112" y="179" type="line"/>
      <point x="642" y="179" type="line"/>
      <point x="642" y="0" type="line"/>
      <point x="112" y="0" type="line"/>
    </contour>
  </outline>
</glyph>
<glyph name="greaterequal" format="1">
  <advance width="781"/>
  <unicode hex="2265"/>
  <outline>
    <contour>
      <point x="107" y="1037" type="line"/>
      <point x="107" y="1312" type="line"/>
      <point x="681" y="947" type="line"/>
      <point x="681" y="655" type="line"/>
      <point x="107" y="286" type="line"/>
      <point x="107" y="558" type="line"/>
      <point x="503" y="801" type="line"/>
    </contour>
    <contour>
      <point x="118" y="179" type="line"/>
      <point x="649" y="179" type="line"/>
      <point x="649" y="0" type="line"/>
      <point x="118" y="0" type="line"/>
    </contour>
  </outline>
</glyph>
<glyph name="lozenge" format="1">
  <advance width="921"/>
  <unicode hex="25CA"/>
  <outline>
    <contour>
      <point x="277" y="1436" type="line"/>
      <point x="648" y="1436" type="line"/>
      <point x="887" y="713" type="line"/>
      <point x="648" y="0" type="line"/>
      <point x="277" y="0" type="line"/>
      <point x="34" y="713" type="line"/>
    </contour>
    <contour>
      <point x="609" y="713" type="line"/>
      <point x="475" y="1247" type="line"/>
      <point x="443" y="1247" type="line"/>
      <point x="309" y="713" type="line"/>
      <point x="443" y="179" type="line"/>
      <point x="475" y="179" type="line"/>
    </contour>
  </outline>
</glyph>
<glyph name="uniFB00" format="1">
  <advance width="1274"/>
  <unicode hex="FB00"/>
  <outline>
    <contour>
      <point x="811" y="1519" type="line" smooth="yes"/>
      <point x="811" y="1687"/>
      <point x="901" y="1784"/>
      <point x="1062" y="1784" type="curve" smooth="yes"/>
      <point x="1144" y="1784"/>
      <point x="1211" y="1766"/>
      <point x="1227" y="1760" type="curve"/>
      <point x="1227" y="1593" type="line"/>
      <point x="1205" y="1596"/>
      <point x="1185" y="1597"/>
      <point x="1167" y="1597" type="curve" smooth="yes"/>
      <point x="1099" y="1597"/>
      <point x="1075" y="1569"/>
      <point x="1075" y="1511" type="curve" smooth="yes"/>
      <point x="1075" y="1441" type="line"/>
      <point x="1227" y="1441" type="line"/>
      <point x="1227" y="1250" type="line"/>
      <point x="1075" y="1250" type="line"/>
      <point x="1075" y="0" type="line"/>
      <point x="810" y="0" type="line"/>
      <point x="810" y="1250" type="line"/>
      <point x="438" y="1250" type="line"/>
      <point x="438" y="0" type="line"/>
      <point x="173" y="0" type="line"/>
      <point x="173" y="1250" type="line"/>
      <point x="57" y="1250" type="line"/>
      <point x="57" y="1441" type="line"/>
      <point x="174" y="1441" type="line"/>
      <point x="174" y="1519" type="line" smooth="yes"/>
      <point x="174" y="1687"/>
      <point x="264" y="1784"/>
      <point x="425" y="1784" type="curve" smooth="yes"/>
      <point x="507" y="1784"/>
      <point x="574" y="1766"/>
      <point x="590" y="1760" type="curve"/>
      <point x="590" y="1593" type="line"/>
      <point x="568" y="1596"/>
      <point x="548" y="1597"/>
      <point x="530" y="1597" type="curve" smooth="yes"/>
      <point x="462" y="1597"/>
      <point x="438" y="1569"/>
      <point x="438" y="1511" type="curve" smooth="yes"/>
      <point x="438" y="1441" type="line"/>
      <point x="811" y="1441" type="line"/>
    </contour>
  </outline>
</glyph>
<glyph name="uniFB01" format="1">
  <advance width="1171"/>
  <unicode hex="FB01"/>
  <outline>
    <contour>
      <point x="174" y="1566" type="line" smooth="yes"/>
      <point x="174" y="1734"/>
      <point x="264" y="1831"/>
      <point x="425" y="1831" type="curve" smooth="yes"/>
      <point x="507" y="1831"/>
      <point x="574" y="1812"/>
      <point x="590" y="1806" type="curve"/>
      <point x="590" y="1640" type="line"/>
      <point x="568" y="1643"/>
      <point x="548" y="1644"/>
      <point x="530" y="1644" type="curve" smooth="yes"/>
      <point x="462" y="1644"/>
      <point x="438" y="1616"/>
      <point x="438" y="1558" type="curve" smooth="yes"/>
      <point x="438" y="1500" type="line"/>
      <point x="1038" y="1500" type="line"/>
      <point x="1038" y="0" type="line"/>
      <point x="773" y="0" type="line"/>
      <point x="773" y="1309" type="line"/>
      <point x="438" y="1309" type="line"/>
      <point x="438" y="0" type="line"/>
      <point x="173" y="0" type="line"/>
      <point x="173" y="1309" type="line"/>
      <point x="57" y="1309" type="line"/>
      <point x="57" y="1500" type="line"/>
      <point x="174" y="1500" type="line"/>
    </contour>
    <contour>
      <point x="773" y="1800" type="line"/>
      <point x="1038" y="1800" type="line"/>
      <point x="1038" y="1607" type="line"/>
      <point x="773" y="1607" type="line"/>
    </contour>
  </outline>
</glyph>
<glyph name="uniFB02" format="1">
  <advance width="1171"/>
  <unicode hex="FB02"/>
  <outline>
    <contour>
      <point x="174" y="1519" type="line" smooth="yes"/>
      <point x="174" y="1689"/>
      <point x="195" y="1798"/>
      <point x="493" y="1798" type="curve" smooth="yes"/>
      <point x="619" y="1798"/>
      <point x="793" y="1779"/>
      <point x="1036" y="1737" type="curve"/>
      <point x="1036" y="0" type="line"/>
      <point x="772" y="0" type="line"/>
      <point x="772" y="1593" type="line"/>
      <point x="682" y="1613"/>
      <point x="616" y="1622"/>
      <point x="568" y="1622" type="curve" smooth="yes"/>
      <point x="430" y="1622"/>
      <point x="438" y="1554"/>
      <point x="438" y="1511" type="curve" smooth="yes"/>
      <point x="438" y="1441" type="line"/>
      <point x="590" y="1441" type="line"/>
      <point x="590" y="1250" type="line"/>
      <point x="438" y="1250" type="line"/>
      <point x="438" y="0" type="line"/>
      <point x="173" y="0" type="line"/>
      <point x="173" y="1250" type="line"/>
      <point x="57" y="1250" type="line"/>
      <point x="57" y="1441" type="line"/>
      <point x="174" y="1441" type="line"/>
    </contour>
  </outline>
</glyph>
<glyph name="uniFB03" format="1">
  <advance width="1808"/>
  <unicode hex="FB03"/>
  <outline>
    <contour>
      <point x="811" y="1571" type="line" smooth="yes"/>
      <point x="811" y="1739"/>
      <point x="901" y="1836"/>
      <point x="1062" y="1836" type="curve" smooth="yes"/>
      <point x="1144" y="1836"/>
      <point x="1211" y="1817"/>
      <point x="1227" y="1811" type="curve"/>
      <point x="1227" y="1645" type="line"/>
      <point x="1205" y="1648"/>
      <point x="1185" y="1649"/>
      <point x="1167" y="1649" type="curve" smooth="yes"/>
      <point x="1099" y="1649"/>
      <point x="1075" y="1621"/>
      <point x="1075" y="1563" type="curve" smooth="yes"/>
      <point x="1075" y="1500" type="line"/>
      <point x="1675" y="1500" type="line"/>
      <point x="1675" y="0" type="line"/>
      <point x="1410" y="0" type="line"/>
      <point x="1410" y="1309" type="line"/>
      <point x="1075" y="1309" type="line"/>
      <point x="1075" y="0" type="line"/>
      <point x="810" y="0" type="line"/>
      <point x="810" y="1309" type="line"/>
      <point x="438" y="1309" type="line"/>
      <point x="438" y="0" type="line"/>
      <point x="173" y="0" type="line"/>
      <point x="173" y="1309" type="line"/>
      <point x="57" y="1309" type="line"/>
      <point x="57" y="1500" type="line"/>
      <point x="174" y="1500" type="line"/>
      <point x="174" y="1571" type="line" smooth="yes"/>
      <point x="174" y="1739"/>
      <point x="264" y="1836"/>
      <point x="425" y="1836" type="curve" smooth="yes"/>
      <point x="507" y="1836"/>
      <point x="574" y="1817"/>
      <point x="590" y="1811" type="curve"/>
      <point x="590" y="1645" type="line"/>
      <point x="568" y="1648"/>
      <point x="548" y="1649"/>
      <point x="530" y="1649" type="curve" smooth="yes"/>
      <point x="462" y="1649"/>
      <point x="438" y="1621"/>
      <point x="438" y="1563" type="curve" smooth="yes"/>
      <point x="438" y="1500" type="line"/>
      <point x="811" y="1500" type="line"/>
    </contour>
    <contour>
      <point x="1410" y="1800" type="line"/>
      <point x="1675" y="1800" type="line"/>
      <point x="1675" y="1607" type="line"/>
      <point x="1410" y="1607" type="line"/>
    </contour>
  </outline>
</glyph>
<glyph name="uniFB04" format="1">
  <advance width="1808"/>
  <unicode hex="FB04"/>
  <outline>
    <contour>
      <point x="811" y="1519" type="line" smooth="yes"/>
      <point x="811" y="1689"/>
      <point x="832" y="1798"/>
      <point x="1130" y="1798" type="curve" smooth="yes"/>
      <point x="1256" y="1798"/>
      <point x="1430" y="1779"/>
      <point x="1673" y="1737" type="curve"/>
      <point x="1673" y="0" type="line"/>
      <point x="1409" y="0" type="line"/>
      <point x="1409" y="1593" type="line"/>
      <point x="1319" y="1613"/>
      <point x="1253" y="1622"/>
      <point x="1205" y="1622" type="curve" smooth="yes"/>
      <point x="1067" y="1622"/>
      <point x="1075" y="1554"/>
      <point x="1075" y="1511" type="curve" smooth="yes"/>
      <point x="1075" y="1441" type="line"/>
      <point x="1227" y="1441" type="line"/>
      <point x="1227" y="1250" type="line"/>
      <point x="1075" y="1250" type="line"/>
      <point x="1075" y="0" type="line"/>
      <point x="810" y="0" type="line"/>
      <point x="810" y="1250" type="line"/>
      <point x="438" y="1250" type="line"/>
      <point x="438" y="0" type="line"/>
      <point x="173" y="0" type="line"/>
      <point x="173" y="1250" type="line"/>
      <point x="57" y="1250" type="line"/>
      <point x="57" y="1441" type="line"/>
      <point x="174" y="1441" type="line"/>
      <point x="174" y="1519" type="line" smooth="yes"/>
      <point x="174" y="1687"/>
      <point x="264" y="1784"/>
      <point x="425" y="1784" type="curve" smooth="yes"/>
      <point x="507" y="1784"/>
      <point x="574" y="1766"/>
      <point x="590" y="1760" type="curve"/>
      <point x="590" y="1593" type="line"/>
      <point x="568" y="1596"/>
      <point x="548" y="1597"/>
      <point x="530" y="1597" type="curve" smooth="yes"/>
      <point x="462" y="1597"/>
      <point x="438" y="1569"/>
      <point x="438" y="1511" type="curve" smooth="yes"/>
      <point x="438" y="1441" type="line"/>
      <point x="811" y="1441" type="line"/>
    </contour>
  </outline>
</glyph>
